<?xml version="1.0" encoding="utf-8"?>
<!-- Generator: Adobe Illustrator 24.0.1, SVG Export Plug-In . SVG Version: 6.00 Build 0)  -->
<svg version="1.1" xmlns="http://www.w3.org/2000/svg" xmlns:xlink="http://www.w3.org/1999/xlink" x="0px" y="0px"
	 viewBox="0 0 637.5 630" style="enable-background:new 0 0 637.5 630;" xml:space="preserve">
<style type="text/css">
	.st0{fill:#FFFFFF;}
	.st1{clip-path:url(#SVGID_2_);fill:#E0F1FF;}
	.st2{clip-path:url(#SVGID_4_);fill:#3F6CF4;}
	.st3{clip-path:url(#SVGID_6_);fill:#F4DA66;}
	.st4{clip-path:url(#SVGID_8_);fill:#92D1F8;}
	.st5{fill:#F4DA66;}
	.st6{fill:#3F6CF4;}
	.st7{fill:#130E50;}
	.st8{fill:none;stroke:#FFFFFF;stroke-miterlimit:10;}
	.st9{fill:#D0EBFC;}
	.st10{fill:none;stroke:#130E50;stroke-miterlimit:10;}
	.st11{fill:#E0F1FF;}
	.st12{fill:none;stroke:#3F6CF4;stroke-miterlimit:10;}
	.st13{fill:none;stroke:#30308C;stroke-width:0.75;stroke-miterlimit:10;}
	.st14{fill:#92D1F8;}
	.st15{fill:none;stroke:#FFFFFF;stroke-width:0.75;stroke-miterlimit:10;}
	.st16{fill:none;stroke:#130E50;stroke-width:0.75;stroke-miterlimit:10;}
	.st17{clip-path:url(#SVGID_10_);fill:#3F6CF4;}
	.st18{clip-path:url(#SVGID_10_);fill:none;stroke:#92D1F8;stroke-width:0.75;stroke-miterlimit:10;}
</style>
<g id="BACKGROUND">
	<rect x="3.2" class="st0" width="634.3" height="630"/>
</g>
<g id="OBJECTS">
	<g>
		<defs>
			<rect id="SVGID_1_" x="-17.01" width="330.31" height="238.28"/>
		</defs>
		<clipPath id="SVGID_2_">
			<use xlink:href="#SVGID_1_"  style="overflow:visible;"/>
		</clipPath>
		<path class="st1" d="M226.66,220.79L16.5,173.8c-11.32-2.53-18.44-13.76-15.91-25.08L50.45-74.23
			c2.53-11.32,13.76-18.44,25.08-15.91l210.16,46.99c11.32,2.53,18.44,13.76,15.91,25.08l-49.85,222.95
			C249.21,216.2,237.98,223.32,226.66,220.79z"/>
	</g>
	<g>
		<defs>
			<rect id="SVGID_3_" x="397.34" width="174.8" height="70.4"/>
		</defs>
		<clipPath id="SVGID_4_">
			<use xlink:href="#SVGID_3_"  style="overflow:visible;"/>
		</clipPath>
		<path class="st2" d="M537.33,63.31L411.59,35.19c-6.77-1.51-11.03-8.23-9.52-15L431.9-113.2c1.51-6.77,8.23-11.03,15-9.52
			L572.64-94.6c6.77,1.51,11.03,8.23,9.52,15L552.33,53.79C550.82,60.56,544.1,64.83,537.33,63.31z"/>
	</g>
	<g>
		<defs>
			<rect id="SVGID_5_" x="57.41" y="476.36" width="322.97" height="153.64"/>
		</defs>
		<clipPath id="SVGID_6_">
			<use xlink:href="#SVGID_5_"  style="overflow:visible;"/>
		</clipPath>
		<circle class="st3" cx="212.02" cy="642.31" r="149.02"/>
	</g>
	<g>
		<defs>
			<rect id="SVGID_7_" x="265.01" y="186.56" width="372.49" height="443.44"/>
		</defs>
		<clipPath id="SVGID_8_">
			<use xlink:href="#SVGID_7_"  style="overflow:visible;"/>
		</clipPath>
		<path class="st4" d="M665.89,723.23l-356.42-79.7c-19.2-4.29-31.28-23.34-26.99-42.53l84.55-378.11
			c4.29-19.2,23.34-31.28,42.53-26.99l356.42,79.7c19.2,4.29,31.28,23.34,26.99,42.53l-84.55,378.11
			C704.13,715.44,685.09,727.52,665.89,723.23z"/>
	</g>
	<circle class="st5" cx="441.17" cy="423.71" r="76.68"/>
	<g>
		<path class="st6" d="M563.62,488.38l-135.52-18.51c-4.39-0.6-7.45-4.64-6.86-9.02l10.52-76.99c0.6-4.39,4.64-7.45,9.02-6.86
			l135.52,18.51c4.39,0.6,7.45,4.64,6.86,9.02l-10.52,76.99C572.04,485.91,568,488.98,563.62,488.38z"/>
		
			<ellipse transform="matrix(0.9437 -0.3309 0.3309 0.9437 -114.1586 201.796)" class="st7" cx="535.67" cy="436.23" rx="30.79" ry="30.79"/>
		
			<ellipse transform="matrix(0.7963 -0.6049 0.6049 0.7963 -154.757 412.8898)" class="st8" cx="535.67" cy="436.23" rx="24.68" ry="24.68"/>
		
			<ellipse transform="matrix(0.7963 -0.6049 0.6049 0.7963 -154.757 412.8882)" class="st9" cx="535.67" cy="436.23" rx="13.25" ry="13.25"/>
		<path class="st0" d="M539.54,440.37l-8.71-1.19c-1.96-0.27-3.33-2.08-3.07-4.04l0,0c0.27-1.96,2.08-3.33,4.04-3.07l8.71,1.19
			c1.96,0.27,3.33,2.08,3.07,4.04l0,0C543.31,439.27,541.5,440.64,539.54,440.37z"/>
		<line class="st10" x1="464.54" y1="380.25" x2="453.34" y2="462.21"/>
		<line class="st10" x1="421.64" y1="457.88" x2="573.05" y2="478.56"/>
		
			<rect x="449.96" y="374.42" transform="matrix(0.9908 0.1353 -0.1353 0.9908 55.1791 -58.2399)" class="st7" width="12" height="4.64"/>
		
			<rect x="468.25" y="376.92" transform="matrix(0.9908 0.1353 -0.1353 0.9908 55.685 -60.6917)" class="st6" width="12" height="4.64"/>
		<path class="st8" d="M430.62,392.14l10.68,1.46c4.47,0.61,7.6,4.73,6.99,9.2l-5.66,41.45c-0.61,4.47-4.73,7.6-9.2,6.99
			l-10.68-1.46"/>
	</g>
	<path class="st6" d="M367.69,403.62l-210.16-46.99c-11.32-2.53-18.44-13.76-15.91-25.08l49.85-222.95
		c2.53-11.32,13.76-18.44,25.08-15.91l210.16,46.99c11.32,2.53,18.44,13.76,15.91,25.08l-49.85,222.95
		C390.24,399.03,379.01,406.15,367.69,403.62z"/>
	<g>
		<path class="st11" d="M453.83,239.29L360.19,96.71c-0.88-1.34-0.51-3.14,0.83-4.02l104.84-68.85c1.34-0.88,3.14-0.51,4.02,0.83
			l93.65,142.58c0.88,1.34,0.51,3.14-0.83,4.02l-104.84,68.85C456.51,241,454.71,240.63,453.83,239.29z"/>
		
			<rect x="398.48" y="52.29" transform="matrix(0.8358 -0.549 0.549 0.8358 5.2032 273.0175)" class="st7" width="121.27" height="151.03"/>
		<path class="st10" d="M514.29,196.11l-14.42,9.47c-1.55,1.02-3.63,0.59-4.65-0.96l-0.32-0.49c-1.02-1.55-0.59-3.63,0.96-4.65
			l14.42-9.47c1.55-1.02,3.63-0.59,4.65,0.96l0.32,0.49C516.27,193.02,515.84,195.1,514.29,196.11z"/>
		<line class="st12" x1="449.89" y1="224.21" x2="551.25" y2="157.64"/>
		<line class="st12" x1="366.98" y1="97.98" x2="468.34" y2="31.4"/>
		<line class="st13" x1="418.23" y1="166.97" x2="453.91" y2="50.35"/>
		<line class="st13" x1="446.24" y1="218.67" x2="473.08" y2="130.94"/>
		<line class="st13" x1="495.09" y1="149.4" x2="511.22" y2="96.69"/>
		<line class="st13" x1="432.04" y1="99.59" x2="448.17" y2="46.88"/>
	</g>
	<path class="st10" d="M592.2,203.04c-11.5-8.53-27.73-6.13-36.27,5.37c-8.53,11.5-6.13,27.74,5.37,36.27"/>
	<path class="st10" d="M534.53,581.03c11.15,8.99,27.47,7.24,36.45-3.91c8.99-11.15,7.24-27.47-3.91-36.45"/>
	<path class="st10" d="M142.04,412.71c8.4-11.6,5.8-27.8-5.8-36.2c-11.6-8.4-27.81-5.8-36.2,5.8"/>
	<g>
		<polygon class="st0" points="229.7,309.64 406.64,300.62 362.08,186.56 185.13,195.58 		"/>
		
			<rect x="229.3" y="300.78" transform="matrix(-0.9987 0.0509 -0.0509 -0.9987 763.9451 590.6221)" class="st7" width="290.31" height="8.52"/>
		<polygon class="st0" points="519.63,301.91 369.25,309.57 368.82,301.06 432.39,297.82 519.2,293.4 		"/>
		<path class="st10" d="M235.44,307.86"/>
		<polygon class="st7" points="359.59,191.15 397.34,288.37 230.27,296.89 190.44,199.77 		"/>
		<line class="st10" x1="408.64" y1="299.03" x2="240.18" y2="307.62"/>
		
			<rect x="284.62" y="308.58" transform="matrix(-0.9987 0.0509 -0.0509 -0.9987 593.4538 603.7867)" class="st8" width="8.84" height="1.73"/>
		
			<rect x="268.86" y="309.39" transform="matrix(-0.9987 0.0509 -0.0509 -0.9987 562.0099 606.1907)" class="st8" width="8.84" height="1.73"/>
		<line class="st10" x1="401.77" y1="288.14" x2="224.82" y2="297.16"/>
		<polyline class="st10" points="469.27,295.94 466.31,299.22 444.66,300.32 441.43,297.41 		"/>
	</g>
	<g>
		<g>
			<g>
				<g>
					<path class="st7" d="M545.8,307.13c0,0.61-0.49,1.1-1.1,1.1s-1.1-0.49-1.1-1.1c0-0.61,0.49-1.1,1.1-1.1
						S545.8,306.53,545.8,307.13z"/>
				</g>
				<g>
					<path class="st7" d="M545.8,317.03c0,0.61-0.49,1.1-1.1,1.1s-1.1-0.49-1.1-1.1c0-0.61,0.49-1.1,1.1-1.1
						S545.8,316.43,545.8,317.03z"/>
				</g>
				<g>
					<path class="st7" d="M545.8,326.94c0,0.61-0.49,1.1-1.1,1.1s-1.1-0.49-1.1-1.1s0.49-1.1,1.1-1.1S545.8,326.33,545.8,326.94z"/>
				</g>
				<g>
					<path class="st7" d="M545.8,336.84c0,0.61-0.49,1.1-1.1,1.1s-1.1-0.49-1.1-1.1c0-0.61,0.49-1.1,1.1-1.1
						S545.8,336.23,545.8,336.84z"/>
				</g>
				<g>
					<path class="st7" d="M545.8,346.74c0,0.61-0.49,1.1-1.1,1.1s-1.1-0.49-1.1-1.1s0.49-1.1,1.1-1.1S545.8,346.13,545.8,346.74z"/>
				</g>
			</g>
			<g>
				<g>
					<path class="st7" d="M557.03,307.13c0,0.61-0.49,1.1-1.1,1.1s-1.1-0.49-1.1-1.1c0-0.61,0.49-1.1,1.1-1.1
						S557.03,306.53,557.03,307.13z"/>
				</g>
				<g>
					<path class="st7" d="M557.03,317.03c0,0.61-0.49,1.1-1.1,1.1s-1.1-0.49-1.1-1.1c0-0.61,0.49-1.1,1.1-1.1
						S557.03,316.43,557.03,317.03z"/>
				</g>
				<g>
					<path class="st7" d="M557.03,326.94c0,0.61-0.49,1.1-1.1,1.1s-1.1-0.49-1.1-1.1s0.49-1.1,1.1-1.1S557.03,326.33,557.03,326.94z
						"/>
				</g>
				<g>
					<path class="st7" d="M557.03,336.84c0,0.61-0.49,1.1-1.1,1.1s-1.1-0.49-1.1-1.1c0-0.61,0.49-1.1,1.1-1.1
						S557.03,336.23,557.03,336.84z"/>
				</g>
				<g>
					<path class="st7" d="M557.03,346.74c0,0.61-0.49,1.1-1.1,1.1s-1.1-0.49-1.1-1.1s0.49-1.1,1.1-1.1S557.03,346.13,557.03,346.74z
						"/>
				</g>
			</g>
			<g>
				<g>
					<path class="st7" d="M568.26,307.13c0,0.61-0.49,1.1-1.1,1.1s-1.1-0.49-1.1-1.1c0-0.61,0.49-1.1,1.1-1.1
						S568.26,306.53,568.26,307.13z"/>
				</g>
				<g>
					<path class="st7" d="M568.26,317.03c0,0.61-0.49,1.1-1.1,1.1s-1.1-0.49-1.1-1.1c0-0.61,0.49-1.1,1.1-1.1
						S568.26,316.43,568.26,317.03z"/>
				</g>
				<g>
					<path class="st7" d="M568.26,326.94c0,0.61-0.49,1.1-1.1,1.1s-1.1-0.49-1.1-1.1s0.49-1.1,1.1-1.1S568.26,326.33,568.26,326.94z
						"/>
				</g>
				<g>
					<path class="st7" d="M568.26,336.84c0,0.61-0.49,1.1-1.1,1.1s-1.1-0.49-1.1-1.1c0-0.61,0.49-1.1,1.1-1.1
						S568.26,336.23,568.26,336.84z"/>
				</g>
				<g>
					<path class="st7" d="M568.26,346.74c0,0.61-0.49,1.1-1.1,1.1s-1.1-0.49-1.1-1.1s0.49-1.1,1.1-1.1S568.26,346.13,568.26,346.74z
						"/>
				</g>
			</g>
			<g>
				<g>
					<path class="st7" d="M579.48,307.13c0,0.61-0.49,1.1-1.1,1.1c-0.61,0-1.1-0.49-1.1-1.1c0-0.61,0.49-1.1,1.1-1.1
						C578.99,306.04,579.48,306.53,579.48,307.13z"/>
				</g>
				<g>
					<path class="st7" d="M579.48,317.03c0,0.61-0.49,1.1-1.1,1.1c-0.61,0-1.1-0.49-1.1-1.1c0-0.61,0.49-1.1,1.1-1.1
						C578.99,315.94,579.48,316.43,579.48,317.03z"/>
				</g>
				<g>
					<path class="st7" d="M579.48,326.94c0,0.61-0.49,1.1-1.1,1.1c-0.61,0-1.1-0.49-1.1-1.1s0.49-1.1,1.1-1.1
						C578.99,325.84,579.48,326.33,579.48,326.94z"/>
				</g>
				<g>
					<path class="st7" d="M579.48,336.84c0,0.61-0.49,1.1-1.1,1.1c-0.61,0-1.1-0.49-1.1-1.1c0-0.61,0.49-1.1,1.1-1.1
						C578.99,335.74,579.48,336.23,579.48,336.84z"/>
				</g>
				<g>
					<path class="st7" d="M579.48,346.74c0,0.61-0.49,1.1-1.1,1.1c-0.61,0-1.1-0.49-1.1-1.1s0.49-1.1,1.1-1.1
						C578.99,345.64,579.48,346.13,579.48,346.74z"/>
				</g>
			</g>
			<g>
				<g>
					<path class="st7" d="M590.71,307.13c0,0.61-0.49,1.1-1.1,1.1c-0.61,0-1.1-0.49-1.1-1.1c0-0.61,0.49-1.1,1.1-1.1
						C590.22,306.04,590.71,306.53,590.71,307.13z"/>
				</g>
				<g>
					<path class="st7" d="M590.71,317.03c0,0.61-0.49,1.1-1.1,1.1c-0.61,0-1.1-0.49-1.1-1.1c0-0.61,0.49-1.1,1.1-1.1
						C590.22,315.94,590.71,316.43,590.71,317.03z"/>
				</g>
				<g>
					<path class="st7" d="M590.71,326.94c0,0.61-0.49,1.1-1.1,1.1c-0.61,0-1.1-0.49-1.1-1.1s0.49-1.1,1.1-1.1
						C590.22,325.84,590.71,326.33,590.71,326.94z"/>
				</g>
				<g>
					<path class="st7" d="M590.71,336.84c0,0.61-0.49,1.1-1.1,1.1c-0.61,0-1.1-0.49-1.1-1.1c0-0.61,0.49-1.1,1.1-1.1
						C590.22,335.74,590.71,336.23,590.71,336.84z"/>
				</g>
				<g>
					<path class="st7" d="M590.71,346.74c0,0.61-0.49,1.1-1.1,1.1c-0.61,0-1.1-0.49-1.1-1.1s0.49-1.1,1.1-1.1
						C590.22,345.64,590.71,346.13,590.71,346.74z"/>
				</g>
			</g>
		</g>
	</g>
	<g>
		<g>
			<g>
				<g>
					<path class="st7" d="M103.25,112.22c0,0.61-0.49,1.1-1.1,1.1s-1.1-0.49-1.1-1.1s0.49-1.1,1.1-1.1S103.25,111.61,103.25,112.22z
						"/>
				</g>
				<g>
					<path class="st7" d="M103.25,122.12c0,0.61-0.49,1.1-1.1,1.1s-1.1-0.49-1.1-1.1s0.49-1.1,1.1-1.1S103.25,121.51,103.25,122.12z
						"/>
				</g>
				<g>
					<path class="st7" d="M103.25,132.02c0,0.61-0.49,1.1-1.1,1.1s-1.1-0.49-1.1-1.1c0-0.61,0.49-1.1,1.1-1.1
						S103.25,131.41,103.25,132.02z"/>
				</g>
				<g>
					<path class="st7" d="M103.25,141.92c0,0.61-0.49,1.1-1.1,1.1s-1.1-0.49-1.1-1.1c0-0.61,0.49-1.1,1.1-1.1
						S103.25,141.32,103.25,141.92z"/>
				</g>
				<g>
					<path class="st7" d="M103.25,151.82c0,0.61-0.49,1.1-1.1,1.1s-1.1-0.49-1.1-1.1c0-0.61,0.49-1.1,1.1-1.1
						S103.25,151.22,103.25,151.82z"/>
				</g>
			</g>
			<g>
				<g>
					<path class="st7" d="M114.47,112.22c0,0.61-0.49,1.1-1.1,1.1s-1.1-0.49-1.1-1.1s0.49-1.1,1.1-1.1S114.47,111.61,114.47,112.22z
						"/>
				</g>
				<g>
					<path class="st7" d="M114.47,122.12c0,0.61-0.49,1.1-1.1,1.1s-1.1-0.49-1.1-1.1s0.49-1.1,1.1-1.1S114.47,121.51,114.47,122.12z
						"/>
				</g>
				<g>
					<path class="st7" d="M114.47,132.02c0,0.61-0.49,1.1-1.1,1.1s-1.1-0.49-1.1-1.1c0-0.61,0.49-1.1,1.1-1.1
						S114.47,131.41,114.47,132.02z"/>
				</g>
				<g>
					<path class="st7" d="M114.47,141.92c0,0.61-0.49,1.1-1.1,1.1s-1.1-0.49-1.1-1.1c0-0.61,0.49-1.1,1.1-1.1
						S114.47,141.32,114.47,141.92z"/>
				</g>
				<g>
					<path class="st7" d="M114.47,151.82c0,0.61-0.49,1.1-1.1,1.1s-1.1-0.49-1.1-1.1c0-0.61,0.49-1.1,1.1-1.1
						S114.47,151.22,114.47,151.82z"/>
				</g>
			</g>
			<g>
				<g>
					<path class="st7" d="M125.7,112.22c0,0.61-0.49,1.1-1.1,1.1s-1.1-0.49-1.1-1.1s0.49-1.1,1.1-1.1S125.7,111.61,125.7,112.22z"/>
				</g>
				<g>
					<path class="st7" d="M125.7,122.12c0,0.61-0.49,1.1-1.1,1.1s-1.1-0.49-1.1-1.1s0.49-1.1,1.1-1.1S125.7,121.51,125.7,122.12z"/>
				</g>
				<g>
					<path class="st7" d="M125.7,132.02c0,0.61-0.49,1.1-1.1,1.1s-1.1-0.49-1.1-1.1c0-0.61,0.49-1.1,1.1-1.1
						S125.7,131.41,125.7,132.02z"/>
				</g>
				<g>
					<path class="st7" d="M125.7,141.92c0,0.61-0.49,1.1-1.1,1.1s-1.1-0.49-1.1-1.1c0-0.61,0.49-1.1,1.1-1.1
						S125.7,141.32,125.7,141.92z"/>
				</g>
				<g>
					<path class="st7" d="M125.7,151.82c0,0.61-0.49,1.1-1.1,1.1s-1.1-0.49-1.1-1.1c0-0.61,0.49-1.1,1.1-1.1
						S125.7,151.22,125.7,151.82z"/>
				</g>
			</g>
			<g>
				<g>
					<path class="st7" d="M136.93,112.22c0,0.61-0.49,1.1-1.1,1.1c-0.61,0-1.1-0.49-1.1-1.1s0.49-1.1,1.1-1.1
						C136.44,111.12,136.93,111.61,136.93,112.22z"/>
				</g>
				<g>
					<path class="st7" d="M136.93,122.12c0,0.61-0.49,1.1-1.1,1.1c-0.61,0-1.1-0.49-1.1-1.1s0.49-1.1,1.1-1.1
						C136.44,121.02,136.93,121.51,136.93,122.12z"/>
				</g>
				<g>
					<path class="st7" d="M136.93,132.02c0,0.61-0.49,1.1-1.1,1.1c-0.61,0-1.1-0.49-1.1-1.1c0-0.61,0.49-1.1,1.1-1.1
						C136.44,130.92,136.93,131.41,136.93,132.02z"/>
				</g>
				<g>
					<path class="st7" d="M136.93,141.92c0,0.61-0.49,1.1-1.1,1.1c-0.61,0-1.1-0.49-1.1-1.1c0-0.61,0.49-1.1,1.1-1.1
						C136.44,140.82,136.93,141.32,136.93,141.92z"/>
				</g>
				<g>
					<path class="st7" d="M136.93,151.82c0,0.61-0.49,1.1-1.1,1.1c-0.61,0-1.1-0.49-1.1-1.1c0-0.61,0.49-1.1,1.1-1.1
						C136.44,150.73,136.93,151.22,136.93,151.82z"/>
				</g>
			</g>
			<g>
				<g>
					<path class="st7" d="M148.15,112.22c0,0.61-0.49,1.1-1.1,1.1c-0.61,0-1.1-0.49-1.1-1.1s0.49-1.1,1.1-1.1
						C147.66,111.12,148.15,111.61,148.15,112.22z"/>
				</g>
				<g>
					<path class="st7" d="M148.15,122.12c0,0.61-0.49,1.1-1.1,1.1c-0.61,0-1.1-0.49-1.1-1.1s0.49-1.1,1.1-1.1
						C147.66,121.02,148.15,121.51,148.15,122.12z"/>
				</g>
				<g>
					<path class="st7" d="M148.15,132.02c0,0.61-0.49,1.1-1.1,1.1c-0.61,0-1.1-0.49-1.1-1.1c0-0.61,0.49-1.1,1.1-1.1
						C147.66,130.92,148.15,131.41,148.15,132.02z"/>
				</g>
				<g>
					<path class="st7" d="M148.15,141.92c0,0.61-0.49,1.1-1.1,1.1c-0.61,0-1.1-0.49-1.1-1.1c0-0.61,0.49-1.1,1.1-1.1
						C147.66,140.82,148.15,141.32,148.15,141.92z"/>
				</g>
				<g>
					<path class="st7" d="M148.15,151.82c0,0.61-0.49,1.1-1.1,1.1c-0.61,0-1.1-0.49-1.1-1.1c0-0.61,0.49-1.1,1.1-1.1
						C147.66,150.73,148.15,151.22,148.15,151.82z"/>
				</g>
			</g>
		</g>
	</g>
	<g>
		<g>
			<g>
				<path class="st7" d="M400.48,551.61l-0.65-0.28c-2.22-0.96-3.25-3.55-2.29-5.78l14.7-34.01c0.91-2.11,2.35-3.94,4.15-5.32
					c6.69-5.08,25.07-15.69,51.22-4.39l-1.6,3.7c-24.2-10.46-41.05-0.76-47.18,3.9c-1.25,0.95-2.25,2.23-2.89,3.7l-14.7,34.01
					c-0.08,0.18,0.01,0.4,0.19,0.47l0.65,0.28L400.48,551.61z"/>
			</g>
			<g>
				<path class="st6" d="M438.61,502.72l-0.99-6.79c9.87-1.44,20.15,0.11,30.55,4.6l-2.72,6.29
					C456.23,502.85,447.2,501.47,438.61,502.72z"/>
			</g>
			<path class="st14" d="M401.57,559.09l-0.88-0.38c-2.61-1.13-3.82-4.17-2.69-6.78l2.46-5.69c1.13-2.61,4.17-3.82,6.78-2.69
				l0.88,0.38L401.57,559.09z"/>
			<path class="st6" d="M405.88,571.07l-1.16-0.5c-4.43-1.92-6.47-7.06-4.56-11.49l6.98-16.14c1.92-4.43,7.06-6.47,11.49-4.56
				l1.16,0.5L405.88,571.07z"/>
			<path class="st7" d="M412.12,579.61l-7.6-3.29c-2.2-0.95-3.21-3.5-2.26-5.7l14.73-34.08c0.95-2.2,3.5-3.21,5.7-2.26l7.6,3.29
				c2.2,0.95,3.21,3.5,2.26,5.7l-14.73,34.08C416.88,579.55,414.32,580.56,412.12,579.61z"/>
			<line class="st15" x1="415.88" y1="539.11" x2="403.37" y2="568.06"/>
			<path class="st15" d="M432.15,544.22l-2.61,0.5c-2.79,0.53-5.13,2.4-6.26,5.01l-7.11,16.46c-1.13,2.6-0.89,5.6,0.64,7.99
				l1.43,2.24"/>
		</g>
		<g>
			<g>
				<path class="st7" d="M477.34,584.83l0.65,0.28c2.22,0.96,4.82-0.07,5.78-2.29l14.7-34.01c0.91-2.11,1.27-4.41,1.03-6.67
					c-0.88-8.36-5.75-29.01-31.9-40.31l-1.6,3.7c24.2,10.46,28.68,29.38,29.49,37.03c0.17,1.57-0.08,3.17-0.72,4.64l-14.7,34.01
					c-0.08,0.18-0.29,0.27-0.47,0.19l-0.65-0.28L477.34,584.83z"/>
			</g>
			<g>
				<path class="st6" d="M486.82,523.56l5.62-3.93c-5.71-8.18-13.88-14.6-24.28-19.1l-2.72,6.29
					C474.65,510.81,481.85,516.44,486.82,523.56z"/>
			</g>
			<path class="st14" d="M471.15,589.17l0.88,0.38c2.61,1.13,5.65-0.07,6.78-2.69l2.46-5.69c1.13-2.61-0.07-5.65-2.69-6.78
				l-0.88-0.38L471.15,589.17z"/>
			<path class="st6" d="M459.47,594.23l1.16,0.5c4.43,1.92,9.58-0.12,11.49-4.56l6.98-16.14c1.92-4.43-0.12-9.58-4.56-11.49
				l-1.16-0.5L459.47,594.23z"/>
			<path class="st7" d="M448.97,595.54l7.6,3.29c2.2,0.95,4.75-0.06,5.7-2.26L477,562.48c0.95-2.2-0.06-4.75-2.26-5.7l-7.6-3.29
				c-2.2-0.95-4.75,0.06-5.7,2.26l-14.73,34.08C445.76,592.03,446.77,594.58,448.97,595.54z"/>
			<line class="st15" x1="475.89" y1="565.05" x2="463.38" y2="594"/>
			<path class="st15" d="M461.03,556.7l1.43,2.24c1.53,2.39,1.76,5.38,0.64,7.99l-7.11,16.46c-1.13,2.6-3.47,4.48-6.26,5.01
				l-2.61,0.49"/>
		</g>
	</g>
	<path class="st16" d="M577.66,108.66c0,1.53-1.24,2.76-2.76,2.76c-1.53,0-2.76-1.24-2.76-2.76c0-1.53,1.24-2.76,2.76-2.76
		C576.42,105.89,577.66,107.13,577.66,108.66z"/>
	<path class="st16" d="M97.63,585.47c0,1.53-1.24,2.76-2.76,2.76c-1.53,0-2.76-1.24-2.76-2.76c0-1.53,1.24-2.76,2.76-2.76
		C96.39,582.71,97.63,583.95,97.63,585.47z"/>
	<g>
		<line class="st16" x1="508.09" y1="262.38" x2="514.35" y2="268.64"/>
		<line class="st16" x1="514.35" y1="262.38" x2="508.09" y2="268.64"/>
	</g>
	<g>
		<line class="st16" x1="163.77" y1="52.19" x2="170.04" y2="58.46"/>
		<line class="st16" x1="170.04" y1="52.19" x2="163.77" y2="58.46"/>
	</g>
	<g>
		<line class="st16" x1="66.72" y1="537.54" x2="72.98" y2="543.8"/>
		<line class="st16" x1="72.98" y1="537.54" x2="66.72" y2="543.8"/>
	</g>
	<g>
		
			<rect x="104.17" y="430.34" transform="matrix(0.9927 -0.1202 0.1202 0.9927 -58.1147 30.6286)" class="st7" width="241.3" height="133.37"/>
		<line class="st15" x1="111.39" y1="563.94" x2="350.94" y2="534.93"/>
		
			<rect x="201.26" y="563.18" transform="matrix(0.9927 -0.1202 0.1202 0.9927 -66.6662 32.1911)" class="st7" width="64.48" height="11.02"/>
		
			<rect x="186.74" y="574.14" transform="matrix(0.9927 -0.1202 0.1202 0.9927 -67.5947 32.3608)" class="st7" width="95.41" height="4.66"/>
		<line class="st15" x1="197.64" y1="567.48" x2="268.03" y2="558.96"/>
		<line class="st15" x1="198.97" y1="578.42" x2="269.35" y2="569.9"/>
		<g>
			<defs>
				
					<rect id="SVGID_9_" x="106.9" y="434.1" transform="matrix(0.9927 -0.1202 0.1202 0.9927 -57.2441 30.4696)" width="234.07" height="111.25"/>
			</defs>
			<clipPath id="SVGID_10_">
				<use xlink:href="#SVGID_9_"  style="overflow:visible;"/>
			</clipPath>
			
				<rect x="106.9" y="434.1" transform="matrix(0.9927 -0.1202 0.1202 0.9927 -57.2441 30.4696)" class="st17" width="234.07" height="111.25"/>
			<line class="st18" x1="152.61" y1="483.67" x2="229.45" y2="431.25"/>
			<line class="st18" x1="84.84" y1="514.57" x2="161.67" y2="462.15"/>
			<line class="st18" x1="195.43" y1="549.21" x2="321.03" y2="463.52"/>
			<line class="st18" x1="252.33" y1="495.51" x2="336.66" y2="437.98"/>
		</g>
	</g>
</g>
<g id="TEXTS">
</g>
</svg>
