<?xml version="1.0" encoding="utf-8"?>
<!-- Generator: Adobe Illustrator 24.0.1, SVG Export Plug-In . SVG Version: 6.00 Build 0)  -->
<svg version="1.1" xmlns="http://www.w3.org/2000/svg" xmlns:xlink="http://www.w3.org/1999/xlink" x="0px" y="0px"
	 viewBox="0 0 607.8 480" style="enable-background:new 0 0 607.8 480;" xml:space="preserve">
<style type="text/css">
	.st0{fill:#FFFFFF;}
	.st1{clip-path:url(#SVGID_2_);fill:#E0F1FF;}
	.st2{fill:none;stroke:#130E50;stroke-miterlimit:10;}
	.st3{clip-path:url(#SVGID_4_);fill:#92D1F8;}
	.st4{fill:#3F6CF4;}
	.st5{fill:#130E50;}
	.st6{fill:#F4DA66;}
	.st7{display:none;}
	.st8{display:inline;}
	.st9{display:inline;fill:none;stroke:#FFFFFF;stroke-miterlimit:10;}
	.st10{display:inline;fill:#130E50;}
	.st11{display:inline;fill:#FFFFFF;}
	.st12{display:inline;fill:none;stroke:#130E50;stroke-miterlimit:10;}
	.st13{display:inline;fill:#3F6CF4;}
	.st14{fill:#92D1F8;}
	.st15{display:inline;fill:#D0EBFC;}
	.st16{display:inline;fill:#92D1F8;}
	.st17{fill:none;stroke:#FFFFFF;stroke-miterlimit:10;}
	.st18{fill:#D0EBFC;}
	.st19{clip-path:url(#SVGID_6_);}
	.st20{fill:none;stroke:#92D1F8;stroke-miterlimit:10;}
</style>
<g id="BACKGROUND">
	<rect x="-0.4" y="0" transform="matrix(-1 -4.489798e-11 4.489798e-11 -1 604.7009 480)" class="st0" width="605.5" height="480"/>
</g>
<g id="OBJECTS">
	<g>
		<defs>
			
				<rect id="SVGID_1_" x="36.83" y="0" transform="matrix(-1 -4.489532e-11 4.489532e-11 -1 617.6289 282.3681)" width="543.97" height="282.37"/>
		</defs>
		<clipPath id="SVGID_2_">
			<use xlink:href="#SVGID_1_"  style="overflow:visible;"/>
		</clipPath>
		<path class="st1" d="M154.93,277.54l375.17-83.89c20.21-4.52,32.93-24.56,28.41-44.77l-89-398.01
			c-4.52-20.21-24.56-32.93-44.77-28.41l-375.17,83.9c-20.21,4.52-32.93,24.56-28.41,44.77l89,398.01
			C114.68,269.34,134.72,282.06,154.93,277.54z"/>
	</g>
	<path class="st2" d="M246.26,430.72c0,3.75,3.04,6.78,6.78,6.78c3.75,0,6.78-3.04,6.78-6.78c0-3.75-3.04-6.78-6.78-6.78
		C249.29,423.94,246.26,426.97,246.26,430.72z"/>
	<path class="st2" d="M466.15,347.04c9.17-16.72,30.15-22.84,46.87-13.68c16.72,9.17,22.84,30.15,13.68,46.87"/>
	<g>
		<defs>
			
				<rect id="SVGID_3_" x="-0.4" y="131.05" transform="matrix(-1 -4.489532e-11 4.489532e-11 -1 380.9449 598.5693)" width="381.74" height="336.46"/>
		</defs>
		<clipPath id="SVGID_4_">
			<use xlink:href="#SVGID_3_"  style="overflow:visible;"/>
		</clipPath>
		<path class="st3" d="M12.81,451.59l344.53-77.42c13.58-3.05,22.12-16.54,19.07-30.12l-39-173.56
			c-3.05-13.58-16.54-22.12-30.12-19.07l-344.53,77.42c-13.58,3.05-22.12,16.54-19.07,30.12l39,173.56
			C-14.26,446.1-0.77,454.64,12.81,451.59z"/>
	</g>
	<g>
		<polygon class="st4" points="501.24,94.21 492.7,69.04 359.55,33.98 353.91,55.42 		"/>
		
			<rect x="379.29" y="77.71" transform="matrix(-0.967 -0.2546 0.2546 -0.967 844.6747 436.066)" class="st4" width="142.53" height="171.32"/>
		
			<rect x="332.78" y="53.24" transform="matrix(-0.967 -0.2546 0.2546 -0.967 668.0878 364.2759)" class="st4" width="49.68" height="171.32"/>
		<line class="st2" x1="501.87" y1="248.4" x2="364.03" y2="212.11"/>
		<g>
			<line class="st2" x1="369.4" y1="121.05" x2="353.84" y2="116.95"/>
			<line class="st2" x1="368.53" y1="124.38" x2="352.97" y2="120.29"/>
			<line class="st2" x1="367.65" y1="127.72" x2="352.09" y2="123.62"/>
			<line class="st2" x1="366.77" y1="131.05" x2="351.21" y2="126.96"/>
		</g>
		
			<rect x="349.37" y="100.46" transform="matrix(-0.967 -0.2546 0.2546 -0.967 676.9815 335.1283)" class="st2" width="21.62" height="46.59"/>
		
			<rect x="397.2" y="80.03" transform="matrix(-0.967 -0.2546 0.2546 -0.967 897.2275 306.7984)" class="st0" width="142.53" height="30.61"/>
		
			<ellipse transform="matrix(0.4908 -0.8713 0.8713 0.4908 83.4666 479.4241)" class="st0" cx="451.9" cy="168.3" rx="37.35" ry="37.35"/>
		<polyline class="st2" points="508.67,90.09 385.65,57.71 381.67,39.81 		"/>
		<path class="st2" d="M462.44,128.26c18.58,4.89,30.86,21.65,30.87,40l3.95,3.24c1.42,1.17,2.04,3.05,1.57,4.83l-2.13,8.11
			c-0.47,1.78-1.93,3.12-3.74,3.43l-5.03,0.87c-9.04,15.96-27.99,24.5-46.57,19.61c-22.12-5.82-35.33-28.47-29.5-50.59
			C417.68,135.64,440.32,122.43,462.44,128.26z"/>
		
			<ellipse transform="matrix(0.9639 -0.2664 0.2664 0.9639 -28.5075 126.4905)" class="st2" cx="451.9" cy="168.3" rx="31.62" ry="31.62"/>
		<line class="st2" x1="482.81" y1="175.07" x2="447.2" y2="137.03"/>
		<line class="st2" x1="459.09" y1="198.86" x2="426.09" y2="163.61"/>
		<line class="st2" x1="476.59" y1="188.06" x2="433.67" y2="142.21"/>
		<line class="st2" x1="523.26" y1="108.68" x2="512.11" y2="105.75"/>
		<line class="st2" x1="503.27" y1="103.42" x2="492.12" y2="100.48"/>
		
			<ellipse transform="matrix(0.5652 -0.8249 0.8249 0.5652 121.5973 413.0923)" class="st4" cx="452.7" cy="91.19" rx="4.64" ry="4.64"/>
		<path class="st2" d="M430.98,85.47c0.65-2.48,3.19-3.96,5.67-3.31c2.48,0.65,3.96,3.19,3.31,5.67c-0.65,2.48-3.19,3.96-5.67,3.31
			C431.81,90.48,430.33,87.95,430.98,85.47z"/>
		<path class="st2" d="M413.74,80.93c0.65-2.48,3.19-3.96,5.67-3.31c2.48,0.65,3.96,3.19,3.31,5.67c-0.65,2.48-3.19,3.96-5.67,3.31
			C414.57,85.95,413.09,83.41,413.74,80.93z"/>
		<polygon class="st5" points="389.26,227.25 477.4,250.45 481.09,259.99 381.34,233.73 		"/>
		<line class="st2" x1="398.37" y1="81.68" x2="361.54" y2="221.55"/>
		
			<rect x="509.79" y="113.58" transform="matrix(-0.967 -0.2546 0.2546 -0.967 984.7568 358.111)" class="st6" width="11.53" height="3.5"/>
	</g>
	<g class="st7">
		<g class="st8">
			<polygon class="st5" points="-861.21,353.21 -846.67,349.06 -846.46,344.23 -863.94,349.21 			"/>
			<line class="st2" x1="-853.94" y1="351.13" x2="-833.89" y2="421.44"/>
			<g>
				<path class="st2" d="M-846.23,378.15l7.94,0.88c5.71,0.63,10.05,5.44,10.09,11.18l0.2,26.09c0.02,2.03-1.33,3.83-3.28,4.38
					l-2.6,0.74"/>
				<path class="st2" d="M-846.23,378.15l-6.28,4.94c-4.52,3.55-5.67,9.92-2.67,14.82l13.6,22.27c1.06,1.73,3.15,2.55,5.1,1.99
					l2.6-0.74"/>
			</g>
			<g>
				<path class="st2" d="M-846.23,378.15l5.55,1.56c4,1.12,7.41,6.19,7.95,11.79l2.45,25.45c0.19,1.98-0.58,3.61-1.88,3.98
					l-1.73,0.49"/>
				<path class="st2" d="M-846.23,378.15l-3.9,4.26c-2.8,3.06-3.03,9.17-0.53,14.21l11.35,22.91c0.88,1.78,2.39,2.76,3.69,2.39
					l1.73-0.49"/>
			</g>
		</g>
		<g class="st8">
			<polygon class="st5" points="-875.75,357.36 -861.21,353.21 -861,348.38 -878.48,353.36 			"/>
			<line class="st2" x1="-868.48" y1="355.28" x2="-848.42" y2="425.58"/>
			<g>
				<path class="st2" d="M-860.77,382.3l7.94,0.88c5.71,0.63,10.05,5.44,10.09,11.18l0.2,26.09c0.02,2.03-1.33,3.83-3.28,4.38
					l-2.6,0.74"/>
				<path class="st2" d="M-860.77,382.3l-6.28,4.94c-4.52,3.55-5.67,9.92-2.67,14.82l13.6,22.27c1.06,1.73,3.15,2.55,5.1,1.99
					l2.6-0.74"/>
			</g>
			<g>
				<path class="st2" d="M-860.77,382.3l5.55,1.56c3.99,1.12,7.41,6.19,7.95,11.79l2.45,25.45c0.19,1.98-0.58,3.61-1.87,3.98
					l-1.73,0.49"/>
				<path class="st2" d="M-860.77,382.3l-3.9,4.26c-2.8,3.06-3.03,9.17-0.53,14.21l11.35,22.91c0.88,1.78,2.4,2.76,3.69,2.39
					l1.73-0.49"/>
			</g>
		</g>
		<line class="st9" x1="-861" y1="348.38" x2="-861.21" y2="353.21"/>
		
			<rect x="-884.88" y="286.36" transform="matrix(-0.9616 0.2744 -0.2744 -0.9616 -1648.8477 806.6683)" class="st10" width="8.09" height="3.33"/>
		
			<rect x="-900.49" y="290.82" transform="matrix(-0.9616 0.2743 -0.2743 -0.9616 -1678.2428 819.6765)" class="st10" width="8.09" height="3.33"/>
		<path class="st11" d="M-941.26,371.27l96.69-27.59c6.66-1.9,9.48-9.78,5.54-15.48l-23.79-34.36c-3.51-5.06-9.84-7.33-15.77-5.64
			l-73.17,20.87c-6.22,1.78-10.28,7.76-9.61,14.2l3.8,36.95C-956.76,368.18-948.95,373.47-941.26,371.27z M-949.93,326.57
			c-0.84-2.93,0.86-5.99,3.79-6.82l38.81-11.07c3.34-0.95,6.73,1.39,7.02,4.85l0.54,6.53c0.22,2.59-1.41,4.98-3.9,5.74l-37.41,11.34
			c-2.95,0.89-6.06-0.8-6.91-3.77L-949.93,326.57z"/>
		<line class="st12" x1="-875.56" y1="312.36" x2="-854.22" y2="306.27"/>
		<line class="st12" x1="-871.82" y1="317.77" x2="-850.49" y2="311.69"/>
		<line class="st12" x1="-868.08" y1="323.19" x2="-846.75" y2="317.1"/>
		<path class="st12" d="M-900.51,312.42l4.87,17.07c1.22,4.29-1.26,8.75-5.55,9.97l-33.91,9.67c-4.29,1.22-8.75-1.26-9.97-5.55
			l-3.89-13.62"/>
	</g>
	<g class="st7">
		<polygon class="st10" points="443.91,298.44 514.82,289.86 522.21,316.54 434.27,325.6 		"/>
		<polygon class="st11" points="383.5,347.63 529.12,330 534.39,322.05 387.85,339.79 		"/>
		<path class="st13" d="M518.59,240.59l-62.36,19.72c-18.93,5.98-34.84,18.99-44.47,36.35l-23.92,43.14l146.54-17.74l8.75-13.22
			L518.59,240.59z M439.18,317.58l11.74-28.21c4.18-10.04,12.93-17.47,23.51-19.96l31.92-7.51l11.3,45.77L439.18,317.58z"/>
		<g class="st8">
			
				<rect x="470.57" y="288.42" transform="matrix(0.9927 -0.1202 0.1202 0.9927 -31.4898 60.1132)" class="st14" width="23.95" height="5.33"/>
			<line class="st2" x1="467.19" y1="295.62" x2="498.53" y2="291.83"/>
		</g>
		<path class="st10" d="M504.12,245.16l18.84,7.56l-0.93-12.55l0,0c-2.4-1.37-5.33-1.44-7.79-0.18L504.12,245.16z"/>
		<path class="st12" d="M524.03,256.64l-4.06,0.49c-2.58,0.31-4.3,2.83-3.65,5.35l9.75,37.9c1.01,3.91,4.81,6.43,8.8,5.82l6.96-1.05
			"/>
		<path class="st9" d="M395.98,325.14l28.72-3.48c4.07-0.49,8.16,0.78,11.23,3.49l8.78,7.76"/>
		<line class="st12" x1="397.16" y1="338.67" x2="531.98" y2="322.34"/>
		<line class="st9" x1="404.1" y1="324.15" x2="433.79" y2="271.68"/>
	</g>
	<g class="st7">
		<g class="st8">
			<path class="st5" d="M-1245.13,247.85l-31.1-24.65l-3.96-32.69c-0.71-5.87,3.49-11.22,9.35-11.93l14.71-1.78l0.99,8.14
				l-14.71,1.78c-1.38,0.17-2.36,1.42-2.2,2.8l3.55,29.35l28.46,22.55L-1245.13,247.85z"/>
		</g>
		<polygon class="st13" points="-1145.9,330.49 -1252.5,343.39 -1256.26,326.85 -1240.31,273.4 -1174.43,265.43 -1146.19,313.53 		
			"/>
		<polygon class="st10" points="-1145.9,330.49 -1252.5,343.39 -1256.26,326.85 -1146.19,313.53 		"/>
		<polygon class="st15" points="-1167.34,138.8 -1179.95,140.33 -1184.71,140.9 -1264.82,150.6 -1240.31,273.4 -1174.44,265.43 
			-1178.65,169.86 		"/>
		<polygon class="st13" points="-1187.71,132.12 -1259.13,140.77 -1264.82,150.6 -1179.83,140.31 		"/>
		
			<rect x="-1247.69" y="130.36" transform="matrix(0.9927 -0.1202 0.1202 0.9927 -24.916 -146.1929)" class="st10" width="46.78" height="6.17"/>
		<line class="st12" x1="-1252.43" y1="139.96" x2="-1194.45" y2="132.94"/>
		<polygon class="st16" points="-1174.43,265.43 -1240.31,273.4 -1242.86,260.64 -1175.02,252.43 		"/>
		<circle class="st16" cx="-1205.58" cy="293.5" r="11.94"/>
		<line class="st12" x1="-1179.35" y1="155.88" x2="-1177.52" y2="195.6"/>
		
			<rect x="-1225.25" y="275.55" transform="matrix(0.9927 -0.1202 0.1202 0.9927 -44.5414 -142.5438)" class="st12" width="42.79" height="44.8"/>
		<path class="st12" d="M-1196.27,292.37c-0.62-5.15-5.3-8.81-10.45-8.19c-5.15,0.62-8.81,5.3-8.19,10.45
			c0.62,5.15,5.3,8.81,10.45,8.19C-1199.31,302.19-1195.64,297.52-1196.27,292.37z"/>
		<line class="st12" x1="-1210.98" y1="301.18" x2="-1200.12" y2="285.87"/>
		<polygon class="st16" points="-1183.24,147.82 -1259.2,157.01 -1260.72,150.11 -1183.41,140.75 		"/>
	</g>
	<circle class="st6" cx="95.8" cy="92.21" r="52.96"/>
	<g>
		<path class="st4" d="M97.82,161.68l103.36-8.8c4.41-0.38,7.68-4.25,7.31-8.66l-4.87-57.22c-0.38-4.41-4.25-7.68-8.66-7.31
			l-103.36,8.8c-4.41,0.38-7.68,4.25-7.31,8.66l4.87,57.22C89.53,158.79,93.41,162.06,97.82,161.68z"/>
		
			<ellipse transform="matrix(0.9982 -0.0596 0.0596 0.9982 -7.0651 7.3718)" class="st5" cx="120.04" cy="122.12" rx="24.13" ry="24.13"/>
		
			<ellipse transform="matrix(0.901 -0.4339 0.4339 0.901 -41.0953 64.173)" class="st17" cx="120.04" cy="122.12" rx="19.34" ry="19.34"/>
		<path class="st18" d="M109.7,123c-0.49-5.71,3.75-10.74,9.46-11.22c5.71-0.49,10.74,3.75,11.22,9.46
			c0.49,5.71-3.75,10.74-9.46,11.22C115.21,132.95,110.18,128.71,109.7,123z"/>
		<path class="st0" d="M116.85,125.21l6.86-0.58c1.55-0.13,2.69-1.49,2.56-3.04l0,0c-0.13-1.55-1.49-2.69-3.04-2.56l-6.86,0.58
			c-1.55,0.13-2.69,1.49-2.56,3.04l0,0C113.94,124.19,115.3,125.34,116.85,125.21z"/>
		<line class="st2" x1="177.95" y1="81.14" x2="183.45" y2="145.73"/>
		<line class="st2" x1="208.43" y1="143.61" x2="89.1" y2="153.76"/>
		
			<rect x="180.1" y="76.91" transform="matrix(-0.9964 0.0848 -0.0848 -0.9964 375.6194 141.4993)" class="st5" width="9.41" height="3.64"/>
		
			<rect x="165.68" y="78.14" transform="matrix(-0.9964 0.0848 -0.0848 -0.9964 346.9433 145.1718)" class="st14" width="9.41" height="3.64"/>
		<path class="st17" d="M204.02,91.8l-8.42,0.72c-3.52,0.3-6.14,3.4-5.84,6.92l2.78,32.67c0.3,3.52,3.4,6.14,6.92,5.84l8.42-0.72"/>
	</g>
	<g>
		<g>
			<g>
				<g>
					<circle class="st5" cx="152.03" cy="398.08" r="1.25"/>
				</g>
				<g>
					<circle class="st5" cx="152.03" cy="409.38" r="1.25"/>
				</g>
				<g>
					<path class="st5" d="M150.78,420.67c0,0.69,0.56,1.25,1.25,1.25c0.69,0,1.25-0.56,1.25-1.25c0-0.69-0.56-1.25-1.25-1.25
						C151.34,419.42,150.78,419.98,150.78,420.67z"/>
				</g>
				<g>
					<circle class="st5" cx="152.03" cy="431.97" r="1.25"/>
				</g>
				<g>
					<circle class="st5" cx="152.03" cy="443.26" r="1.25"/>
				</g>
			</g>
			<g>
				<g>
					<circle class="st5" cx="139.22" cy="398.08" r="1.25"/>
				</g>
				<g>
					<circle class="st5" cx="139.22" cy="409.38" r="1.25"/>
				</g>
				<g>
					<path class="st5" d="M137.97,420.67c0,0.69,0.56,1.25,1.25,1.25s1.25-0.56,1.25-1.25c0-0.69-0.56-1.25-1.25-1.25
						S137.97,419.98,137.97,420.67z"/>
				</g>
				<g>
					<circle class="st5" cx="139.22" cy="431.97" r="1.25"/>
				</g>
				<g>
					<circle class="st5" cx="139.22" cy="443.26" r="1.25"/>
				</g>
			</g>
			<g>
				<g>
					<circle class="st5" cx="126.41" cy="398.08" r="1.25"/>
				</g>
				<g>
					<circle class="st5" cx="126.41" cy="409.38" r="1.25"/>
				</g>
				<g>
					<path class="st5" d="M125.16,420.67c0,0.69,0.56,1.25,1.25,1.25c0.69,0,1.25-0.56,1.25-1.25c0-0.69-0.56-1.25-1.25-1.25
						C125.72,419.42,125.16,419.98,125.16,420.67z"/>
				</g>
				<g>
					<circle class="st5" cx="126.41" cy="431.97" r="1.25"/>
				</g>
				<g>
					<circle class="st5" cx="126.41" cy="443.26" r="1.25"/>
				</g>
			</g>
			<g>
				<g>
					<circle class="st5" cx="113.61" cy="398.08" r="1.25"/>
				</g>
				<g>
					<circle class="st5" cx="113.61" cy="409.38" r="1.25"/>
				</g>
				<g>
					<path class="st5" d="M112.36,420.67c0,0.69,0.56,1.25,1.25,1.25c0.69,0,1.25-0.56,1.25-1.25c0-0.69-0.56-1.25-1.25-1.25
						C112.92,419.42,112.36,419.98,112.36,420.67z"/>
				</g>
				<g>
					<circle class="st5" cx="113.61" cy="431.97" r="1.25"/>
				</g>
				<g>
					<circle class="st5" cx="113.61" cy="443.26" r="1.25"/>
				</g>
			</g>
			<g>
				<g>
					<circle class="st5" cx="100.8" cy="398.08" r="1.25"/>
				</g>
				<g>
					<circle class="st5" cx="100.8" cy="409.38" r="1.25"/>
				</g>
				<g>
					<path class="st5" d="M99.55,420.67c0,0.69,0.56,1.25,1.25,1.25c0.69,0,1.25-0.56,1.25-1.25c0-0.69-0.56-1.25-1.25-1.25
						C100.11,419.42,99.55,419.98,99.55,420.67z"/>
				</g>
				<g>
					<circle class="st5" cx="100.8" cy="431.97" r="1.25"/>
				</g>
				<g>
					<circle class="st5" cx="100.8" cy="443.26" r="1.25"/>
				</g>
			</g>
		</g>
	</g>
	<g>
		<g>
			<g>
				<g>
					<path class="st5" d="M597.32,72.75c0,0.69,0.56,1.25,1.25,1.25c0.69,0,1.25-0.56,1.25-1.25c0-0.69-0.56-1.25-1.25-1.25
						C597.88,71.5,597.32,72.06,597.32,72.75z"/>
				</g>
				<g>
					<path class="st5" d="M597.32,84.04c0,0.69,0.56,1.25,1.25,1.25c0.69,0,1.25-0.56,1.25-1.25c0-0.69-0.56-1.25-1.25-1.25
						C597.88,82.79,597.32,83.35,597.32,84.04z"/>
				</g>
				<g>
					<path class="st5" d="M597.32,95.34c0,0.69,0.56,1.25,1.25,1.25c0.69,0,1.25-0.56,1.25-1.25c0-0.69-0.56-1.25-1.25-1.25
						C597.88,94.09,597.32,94.65,597.32,95.34z"/>
				</g>
				<g>
					<path class="st5" d="M597.32,106.63c0,0.69,0.56,1.25,1.25,1.25c0.69,0,1.25-0.56,1.25-1.25c0-0.69-0.56-1.25-1.25-1.25
						C597.88,105.38,597.32,105.94,597.32,106.63z"/>
				</g>
				<g>
					<path class="st5" d="M597.32,117.93c0,0.69,0.56,1.25,1.25,1.25c0.69,0,1.25-0.56,1.25-1.25s-0.56-1.25-1.25-1.25
						C597.88,116.68,597.32,117.24,597.32,117.93z"/>
				</g>
			</g>
			<g>
				<g>
					<circle class="st5" cx="585.76" cy="72.75" r="1.25"/>
				</g>
				<g>
					<circle class="st5" cx="585.76" cy="84.04" r="1.25"/>
				</g>
				<g>
					<path class="st5" d="M584.51,95.34c0,0.69,0.56,1.25,1.25,1.25c0.69,0,1.25-0.56,1.25-1.25c0-0.69-0.56-1.25-1.25-1.25
						C585.07,94.09,584.51,94.65,584.51,95.34z"/>
				</g>
				<g>
					<circle class="st5" cx="585.76" cy="106.63" r="1.25"/>
				</g>
				<g>
					<circle class="st5" cx="585.76" cy="117.93" r="1.25"/>
				</g>
			</g>
			<g>
				<g>
					<circle class="st5" cx="572.96" cy="72.75" r="1.25"/>
				</g>
				<g>
					<circle class="st5" cx="572.96" cy="84.04" r="1.25"/>
				</g>
				<g>
					<path class="st5" d="M571.71,95.34c0,0.69,0.56,1.25,1.25,1.25s1.25-0.56,1.25-1.25c0-0.69-0.56-1.25-1.25-1.25
						S571.71,94.65,571.71,95.34z"/>
				</g>
				<g>
					<circle class="st5" cx="572.96" cy="106.63" r="1.25"/>
				</g>
				<g>
					<circle class="st5" cx="572.96" cy="117.93" r="1.25"/>
				</g>
			</g>
			<g>
				<g>
					<circle class="st5" cx="560.15" cy="72.75" r="1.25"/>
				</g>
				<g>
					<circle class="st5" cx="560.15" cy="84.04" r="1.25"/>
				</g>
				<g>
					<path class="st5" d="M558.9,95.34c0,0.69,0.56,1.25,1.25,1.25c0.69,0,1.25-0.56,1.25-1.25c0-0.69-0.56-1.25-1.25-1.25
						C559.46,94.09,558.9,94.65,558.9,95.34z"/>
				</g>
				<g>
					<circle class="st5" cx="560.15" cy="106.63" r="1.25"/>
				</g>
				<g>
					<circle class="st5" cx="560.15" cy="117.93" r="1.25"/>
				</g>
			</g>
			<g>
				<g>
					<circle class="st5" cx="547.34" cy="72.75" r="1.25"/>
				</g>
				<g>
					<circle class="st5" cx="547.34" cy="84.04" r="1.25"/>
				</g>
				<g>
					<path class="st5" d="M546.09,95.34c0,0.69,0.56,1.25,1.25,1.25c0.69,0,1.25-0.56,1.25-1.25c0-0.69-0.56-1.25-1.25-1.25
						C546.65,94.09,546.09,94.65,546.09,95.34z"/>
				</g>
				<g>
					<circle class="st5" cx="547.34" cy="106.63" r="1.25"/>
				</g>
				<g>
					<circle class="st5" cx="547.34" cy="117.93" r="1.25"/>
				</g>
			</g>
		</g>
	</g>
	<path class="st2" d="M256.51,206.84c-18.34-5.23-28.96-24.34-23.73-42.67c5.23-18.34,24.34-28.96,42.67-23.73"/>
	<g>
		<line class="st2" x1="275.99" y1="255.11" x2="260.6" y2="270.49"/>
		<line class="st2" x1="260.6" y1="255.11" x2="275.99" y2="270.49"/>
	</g>
	<g>
		<defs>
			
				<rect id="SVGID_5_" x="272.18" y="262.8" transform="matrix(-1 -4.490509e-11 4.490509e-11 -1 761.5627 742.7996)" width="217.2" height="217.2"/>
		</defs>
		<clipPath id="SVGID_6_">
			<use xlink:href="#SVGID_5_"  style="overflow:visible;"/>
		</clipPath>
		<g class="st19">
			<path class="st4" d="M475.79,429.45l-80.62-150.51c-0.76-1.41-2.52-1.95-3.93-1.19l-110.66,59.28c-1.41,0.76-1.95,2.52-1.19,3.93
				l80.62,150.51c0.76,1.41,2.52,1.95,3.93,1.19l110.66-59.28C476.02,432.63,476.55,430.87,475.79,429.45z"/>
			
				<rect x="314.54" y="305.23" transform="matrix(-0.8815 0.4722 -0.4722 -0.8815 885.8134 539.3041)" class="st5" width="121.38" height="151.17"/>
			<path class="st2" d="M408.92,461.98l15.22-8.15c1.63-0.87,2.25-2.91,1.37-4.54l-0.28-0.52c-0.87-1.63-2.91-2.25-4.54-1.37
				l-15.22,8.15c-1.63,0.87-2.25,2.91-1.37,4.54l0.28,0.52C405.25,462.24,407.29,462.86,408.92,461.98z"/>
			<line class="st17" x1="464.42" y1="418.78" x2="357.42" y2="476.09"/>
			<line class="st17" x1="393.04" y1="285.52" x2="286.04" y2="342.84"/>
			<line class="st20" x1="429.21" y1="363.57" x2="309.6" y2="339.21"/>
			<line class="st20" x1="461.28" y1="412.92" x2="371.31" y2="394.59"/>
			<line class="st20" x1="377.02" y1="422.77" x2="322.96" y2="411.76"/>
			<line class="st20" x1="363.36" y1="343.51" x2="309.29" y2="332.5"/>
		</g>
	</g>
</g>
</svg>
