<svg id="OBJECTS" xmlns="http://www.w3.org/2000/svg" viewBox="0 0 397.6 319.85"><defs><style>.cls-1{fill:#94d5fa;}.cls-2{fill:#808285;}.cls-3{fill:#f1f2f2;}.cls-4{fill:#fff;}.cls-5{isolation:isolate;}.cls-6{fill:#f5b85d;}.cls-7{fill:#ffd08a;}.cls-8{fill:#11b7bd;}.cls-9{fill:#0fa0a6;}.cls-10{fill:#3ef7e5;}.cls-11{fill:#38cacf;}.cls-12{fill:#cbe6ff;}.cls-13{fill:#fe4a62;}.cls-14{fill:#fe1938;}.cls-15{fill:#fe7386;}.cls-16{fill:#4a4559;}.cls-17{fill:#372f4d;}.cls-18{fill:#171226;}.cls-19{fill:#2a2242;}.cls-20{fill:#1f1b2b;}.cls-21{fill:#58595b;}.cls-22{fill:#8ccaed;}.cls-23{fill:#353140;}.cls-24,.cls-26,.cls-27,.cls-28{fill:none;stroke-linecap:round;stroke-linejoin:round;}.cls-24,.cls-28{stroke:#ffd08a;}.cls-24{stroke-width:5px;}.cls-25{fill:#ffc670;}.cls-26{stroke:#fe7386;stroke-width:5.22px;}.cls-27{stroke:#fcb28d;stroke-width:4.33px;}.cls-28{stroke-width:7px;}.cls-29{fill:#fcb28d;}.cls-30{fill:#fca579;}.cls-31{fill:#f09365;}.cls-32{fill:#474647;}.cls-33{fill:#262526;}.cls-34{fill:#3c2415;}</style></defs><title>2463480</title><path class="cls-1" d="M348.11,135c77.89,45,78.3,117.88.92,162.86s-203.25,45-281.14,0S-10.41,180,67,135,270.22,90.05,348.11,135Z" transform="translate(-9.2 -11.74)"/><polygon class="cls-2" points="198.61 164.28 195.66 165.99 163.7 147.54 166.65 145.82 198.61 164.28"/><polygon class="cls-2" points="202.34 180.24 200.99 181.03 137.72 144.5 139.07 143.72 202.34 180.24"/><polygon class="cls-2" points="189.17 187.9 187.83 188.68 124.56 152.15 125.9 151.37 189.17 187.9"/><polygon class="cls-2" points="182.58 191.73 181.25 192.5 117.98 155.97 119.31 155.2 182.58 191.73"/><polygon class="cls-2" points="176.01 195.55 174.66 196.33 111.39 159.8 112.74 159.02 176.01 195.55"/><polygon class="cls-2" points="149.68 210.85 148.33 211.63 85.06 175.1 86.41 174.32 149.68 210.85"/><polygon class="cls-2" points="136.51 218.5 135.17 219.28 71.91 182.75 73.24 181.97 136.51 218.5"/><path class="cls-3" d="M165,134.29l84.63,48.86L128.38,253.62,43.75,204.76Zm10.83,23.27-2.94,1.72,32,18.45,2.94-1.71-32-18.46m-18.32,65.81,1.35-.78L95.61,186.06l-1.35.78,63.27,36.53m26.33-15.3,1.35-.78-63.27-36.53-1.35.78,63.27,36.53m-19.74,11.47,1.35-.78L102.2,182.23l-1.35.79,63.27,36.52m-26.33,15.31,1.35-.79L75.87,197.53l-1.35.79,63.27,36.53M203.6,196.6l1.35-.79-63.26-36.52-1.35.78L203.6,196.6m6.59-3.83,1.35-.78-63.27-36.53-1.35.78,63.27,36.53M144.37,231l1.34-.78L82.44,193.72l-1.33.77L144.37,231M197,200.42l1.34-.78L135.1,163.11l-1.33.78L197,200.42m-19.74,11.47,1.33-.78-63.26-36.52-1.34.77,63.27,36.53m13.16-7.65,1.33-.77-63.26-36.53-1.34.78,63.27,36.52M170.7,215.72l1.34-.78-63.27-36.53-1.33.78,63.26,36.53M151,227.19l1.33-.77L89,189.89l-1.34.77L151,227.19" transform="translate(-9.2 -11.74)"/><polygon class="cls-2" points="195.75 184.07 194.4 184.86 131.14 148.33 132.49 147.54 195.75 184.07"/><polygon class="cls-2" points="169.42 199.37 168.09 200.15 104.82 163.62 106.16 162.85 169.42 199.37"/><polygon class="cls-2" points="162.84 203.2 161.5 203.98 98.23 167.45 99.57 166.67 162.84 203.2"/><polygon class="cls-2" points="156.26 207.02 154.91 207.8 91.65 171.28 93 170.49 156.26 207.02"/><polygon class="cls-2" points="143.09 214.67 141.76 215.45 78.49 178.92 79.83 178.15 143.09 214.67"/><polygon class="cls-2" points="129.94 222.32 128.59 223.1 65.32 186.58 66.67 185.79 129.94 222.32"/><polygon class="cls-2" points="332.96 213.9 270.11 250.42 268.77 249.64 331.61 213.12 332.96 213.9"/><polygon class="cls-2" points="326.33 210.07 263.49 246.59 262.14 245.81 324.98 209.29 326.33 210.07"/><polygon class="cls-2" points="313.08 202.42 250.24 238.94 248.9 238.17 311.74 201.65 313.08 202.42"/><polygon class="cls-2" points="286.58 187.12 223.74 223.64 222.4 222.87 285.24 186.34 286.58 187.12"/><polygon class="cls-2" points="293.21 190.95 230.37 227.47 229.01 226.68 291.85 190.16 293.21 190.95"/><polygon class="cls-2" points="299.84 194.78 237 231.29 235.64 230.51 298.48 193.99 299.84 194.78"/><polygon class="cls-2" points="306.45 198.59 243.61 235.12 242.27 234.34 305.11 197.82 306.45 198.59"/><polygon class="cls-2" points="319.71 206.25 256.87 242.77 255.51 241.99 318.36 205.47 319.71 206.25"/><polygon class="cls-2" points="339.59 217.72 276.74 254.24 275.39 253.46 338.23 216.94 339.59 217.72"/><polygon class="cls-2" points="346.21 221.55 283.37 258.07 282.01 257.29 344.86 220.77 346.21 221.55"/><polygon class="cls-2" points="352.83 225.37 289.99 261.89 288.64 261.11 351.49 224.59 352.83 225.37"/><polygon class="cls-2" points="359.46 229.2 296.62 265.72 295.27 264.94 358.11 228.42 359.46 229.2"/><polygon class="cls-2" points="355.91 245.17 324.18 263.61 321.21 261.9 352.94 243.45 355.91 245.17"/><path class="cls-4" d="M283.22,180.24l122.06,70.47L321.2,299.58,199.14,229.1Zm50.16,95.11,31.73-18.44-3-1.72-31.74,18.45,3,1.71M246.2,243,309,206.52l-1.36-.79-62.84,36.52,1.36.79M285.94,266l62.85-36.52-1.36-.78L284.59,265.2l1.35.78m-46.37-26.77,62.84-36.52-1.36-.78-62.84,36.52,1.36.78m26.5,15.3L328.91,218l-1.35-.78-62.85,36.52,1.36.78m26.5,15.3,62.85-36.52-1.36-.78L291.22,269l1.35.78m-19.88-11.48,62.84-36.52-1.35-.78-62.84,36.52,1.35.78m-19.88-11.47,62.85-36.52-1.35-.78-62.84,36.52,1.34.78m-19.87-11.48,62.84-36.52-1.34-.77L231.6,234.61l1.34.77m72.88,42.08,62.84-36.52-1.34-.78-62.85,36.52,1.35.78m-6.63-3.83L362,237.11l-1.34-.78-62.85,36.52,1.35.78m-19.87-11.47,62.84-36.52-1.35-.78L278,261.38l1.35.78m-19.88-11.48,62.84-36.52-1.34-.77L258.1,249.91l1.34.77" transform="translate(-9.2 -11.74)"/><polygon class="cls-2" points="170.61 225.15 107.77 261.67 106.43 260.89 169.27 224.37 170.61 225.15"/><polygon class="cls-2" points="163.99 221.32 101.14 257.84 99.8 257.06 162.64 220.54 163.99 221.32"/><polygon class="cls-2" points="150.74 213.67 87.9 250.19 86.56 249.42 149.4 212.9 150.74 213.67"/><polygon class="cls-2" points="124.24 198.37 61.4 234.89 60.05 234.12 122.89 197.6 124.24 198.37"/><polygon class="cls-2" points="130.87 202.2 68.03 238.72 66.67 237.94 129.51 201.41 130.87 202.2"/><polygon class="cls-2" points="137.5 206.03 74.66 242.55 73.3 241.76 136.14 205.24 137.5 206.03"/><polygon class="cls-2" points="144.11 209.85 81.27 246.37 79.93 245.59 142.77 209.07 144.11 209.85"/><polygon class="cls-2" points="157.37 217.5 94.53 254.02 93.17 253.24 156.01 216.72 157.37 217.5"/><polygon class="cls-2" points="177.24 228.97 114.4 265.49 113.04 264.71 175.89 228.19 177.24 228.97"/><polygon class="cls-2" points="183.87 232.8 121.03 269.32 119.67 268.54 182.51 232.02 183.87 232.8"/><polygon class="cls-2" points="190.49 236.62 127.64 273.14 126.3 272.36 189.14 235.84 190.49 236.62"/><polygon class="cls-2" points="197.12 240.45 134.27 276.97 132.93 276.19 195.77 239.67 197.12 240.45"/><polygon class="cls-2" points="193.57 256.42 161.83 274.86 158.86 273.15 190.6 254.7 193.57 256.42"/><path class="cls-4" d="M120.88,191.49,242.94,262l-84.08,48.87L36.8,240.35ZM171,286.6l31.74-18.44-3-1.72-31.73,18.45,3,1.71M83.86,254.29l62.84-36.52-1.36-.79L82.5,253.5l1.36.79m39.74,22.94,62.84-36.51-1.35-.79-62.85,36.52,1.36.78M77.23,250.46l62.84-36.52-1.36-.78L75.87,249.68l1.36.78m26.5,15.3,62.84-36.52-1.36-.78L102.37,265l1.36.78m26.5,15.3,62.84-36.52-1.35-.78-62.85,36.52,1.36.78m-19.89-11.48,62.85-36.52-1.35-.78L109,268.8l1.34.78M90.47,258.11l62.84-36.52-1.34-.78L89.13,257.33l1.34.78M70.6,246.63l62.84-36.52-1.34-.77L69.25,245.86l1.35.77m72.88,42.08,62.84-36.52-1.35-.78-62.84,36.52,1.35.78m-6.63-3.83,62.84-36.52-1.35-.77L135.5,284.11l1.35.77M117,273.41l62.85-36.52-1.35-.78-62.84,36.52,1.34.78M97.1,261.93l62.84-36.52-1.34-.77L95.76,261.16l1.34.77" transform="translate(-9.2 -11.74)"/><g class="cls-5"><path class="cls-6" d="M136,146.12l-3.53-2c1.06.68.27,3.25-1.28,4.14l-36,20.8h0a1.23,1.23,0,0,1-1.25.12l3.52,2.05a1.26,1.26,0,0,0,1.26-.13l36-20.79C136.23,149.38,137,146.81,136,146.12Z" transform="translate(-9.2 -11.74)"/><polygon class="cls-6" points="73.98 184.13 70.46 182.09 70.15 74.81 73.68 76.86 73.98 184.13"/><path class="cls-7" d="M82.88,88.6l.3,107.27,10-5.76,1.42-.82,3-1.74,1.42-.82,3-1.74,1.42-.82,3-1.75,1.42-.82,3-1.74,1.42-.82,3-1.75,1.42-.82,3-1.74,1.42-.82,3-1.75,1.41-.82,3-1.74,1.43-.82,3-1.75,1.42-.82,3-1.74,1.42-.82,3-1.74,1.42-.82,3-1.75,1.42-.81,3-1.75,1.41-.82,3-1.75,1.42-.82,13.81-8Zm51.8,61.67-36,20.79c-1,.57-1.76.12-1.76-1l-.13-44.21a3.86,3.86,0,0,1,1.77-3,1.18,1.18,0,0,1,1.27-.09L136,146.12C137,146.81,136.23,149.38,134.68,150.27Z" transform="translate(-9.2 -11.74)"/><path class="cls-6" d="M94.57,189.29l-1.42.82,0-7.54a1.56,1.56,0,0,1,.71-1.23c.39-.22.71,0,.71.41Z" transform="translate(-9.2 -11.74)"/><path class="cls-6" d="M99,186.73l-1.42.82,0-7.54a1.59,1.59,0,0,1,.71-1.23c.39-.23.71,0,.71.4Z" transform="translate(-9.2 -11.74)"/><path class="cls-6" d="M103.45,184.17,102,185l0-7.55a1.55,1.55,0,0,1,.71-1.22c.4-.23.71-.05.71.4Z" transform="translate(-9.2 -11.74)"/><path class="cls-6" d="M107.9,181.6l-1.42.82,0-7.54a1.57,1.57,0,0,1,.7-1.23c.39-.22.71,0,.72.41Z" transform="translate(-9.2 -11.74)"/><path class="cls-6" d="M112.34,179l-1.42.82,0-7.55a1.52,1.52,0,0,1,.71-1.22c.39-.23.71-.05.71.4Z" transform="translate(-9.2 -11.74)"/><path class="cls-6" d="M116.78,176.47l-1.42.82,0-7.54a1.59,1.59,0,0,1,.71-1.23c.39-.22.71,0,.71.41Z" transform="translate(-9.2 -11.74)"/><path class="cls-6" d="M121.22,173.91l-1.42.82,0-7.55a1.55,1.55,0,0,1,.71-1.22c.39-.23.71,0,.71.4Z" transform="translate(-9.2 -11.74)"/><path class="cls-6" d="M125.66,171.34l-1.41.82,0-7.54a1.57,1.57,0,0,1,.7-1.23c.39-.22.71,0,.71.41Z" transform="translate(-9.2 -11.74)"/><path class="cls-6" d="M130.11,168.78l-1.43.82,0-7.55a1.58,1.58,0,0,1,.71-1.22c.4-.23.72-.05.72.4Z" transform="translate(-9.2 -11.74)"/><path class="cls-6" d="M134.55,166.21l-1.42.82,0-7.54a1.57,1.57,0,0,1,.7-1.22c.4-.23.71-.05.72.4Z" transform="translate(-9.2 -11.74)"/><path class="cls-6" d="M139,163.65l-1.42.82,0-7.55a1.57,1.57,0,0,1,.71-1.22c.39-.22.71,0,.71.41Z" transform="translate(-9.2 -11.74)"/><path class="cls-6" d="M143.43,161.09l-1.42.82,0-7.55a1.59,1.59,0,0,1,.71-1.23c.39-.22.71,0,.71.41Z" transform="translate(-9.2 -11.74)"/><path class="cls-6" d="M147.87,158.53l-1.42.81,0-7.54a1.59,1.59,0,0,1,.71-1.23c.4-.23.71,0,.71.41Z" transform="translate(-9.2 -11.74)"/><path class="cls-6" d="M152.31,156l-1.41.82,0-7.55a1.54,1.54,0,0,1,.7-1.22c.39-.23.71,0,.71.4Z" transform="translate(-9.2 -11.74)"/><path class="cls-6" d="M156.76,153.39l-1.42.82,0-7.55a1.56,1.56,0,0,1,.71-1.22c.39-.22.71,0,.71.41Z" transform="translate(-9.2 -11.74)"/></g><polygon class="cls-2" points="137.13 31.33 137.14 33.57 116.11 45.71 116.1 43.47 137.13 31.33"/><polygon class="cls-2" points="147.46 34.46 147.46 35.49 105.83 59.52 105.82 58.5 147.46 34.46"/><polygon class="cls-2" points="147.5 49.5 147.5 50.51 105.87 74.55 105.87 73.53 147.5 49.5"/><polygon class="cls-2" points="147.51 54.5 147.52 55.52 105.88 79.56 105.88 78.54 147.51 54.5"/><polygon class="cls-2" points="147.56 69.53 147.56 70.55 105.93 94.59 105.92 93.56 147.56 69.53"/><polygon class="cls-2" points="147.57 74.54 147.57 75.56 105.94 99.6 105.94 98.58 147.57 74.54"/><polygon class="cls-2" points="147.61 89.57 147.62 90.59 105.98 114.63 105.98 113.6 147.61 89.57"/><polygon class="cls-2" points="147.59 79.55 147.59 80.57 105.95 104.6 105.95 103.59 147.59 79.55"/><polygon class="cls-2" points="147.54 64.52 147.54 65.54 105.91 89.58 105.91 88.56 147.54 64.52"/><polygon class="cls-2" points="147.49 44.48 147.49 45.5 105.86 69.54 105.85 68.52 147.49 44.48"/><path class="cls-4" d="M108.47,53.73l55.7-32.16.26,92.3L108.73,146Zm16.83,1.48v2.25l21-12.15V43.07l-21,12.14m31.42,12.06v-1l-41.64,24v1l41.64-24m.05,20v-1l-41.63,24v1l41.63-24m-.09-35.07v-1L115,75.25v1l41.64-24m0-5v-1L115,70.24v1l41.63-24m.16,55.1v-1l-41.63,24v1l41.64-24m-.06-20v-1l-41.64,24v1l41.63-24m-.07-25.05v-1l-41.64,24v1l41.63-24m0,5v-1l-41.63,24v1l41.63-24m0,10v-1l-41.63,24v1l41.63-24m.06,20v-1l-41.64,24v1l41.63-24m0-15v-1l-41.63,24v1l41.64-24m.05,20v-1l-41.63,24v1l41.63-24" transform="translate(-9.2 -11.74)"/><polygon class="cls-2" points="147.6 84.56 147.6 85.58 105.97 109.62 105.97 108.6 147.6 84.56"/><polygon class="cls-2" points="147.53 59.51 147.53 60.53 105.9 84.56 105.89 83.55 147.53 59.51"/><polygon class="cls-2" points="147.47 39.47 147.47 40.5 105.84 64.53 105.84 63.51 147.47 39.47"/><path class="cls-8" d="M261.42,56.9a7.46,7.46,0,0,0-6.76,0L202.23,87.37,202,174.11l52.43-30.46a7.46,7.46,0,0,1,6.76,0,2.36,2.36,0,0,1,1.41,2l.25-86.75A2.4,2.4,0,0,0,261.42,56.9Z" transform="translate(-9.2 -11.74)"/><polygon class="cls-9" points="193.03 75.63 192.78 162.37 190.97 161.33 191.21 74.58 193.03 75.63"/><polygon class="cls-9" points="201.62 80.59 201.38 167.34 199.57 166.29 199.81 79.54 201.62 80.59"/><path class="cls-8" d="M263.25,61.86,210.82,92.33l-.24,86.75L263,148.61a3.66,3.66,0,0,0,2.13-3l.24-86.74A3.62,3.62,0,0,1,263.25,61.86Z" transform="translate(-9.2 -11.74)"/><path class="cls-10" d="M263.22,55.85c2.87,1.66,2.89,4.35,0,6L210.82,92.33l-1.81-1,52.43-30.47c1.86-1.08,1.85-2.84,0-3.92a7.46,7.46,0,0,0-6.76,0L202.23,87.37l-1.82-1.05,52.44-30.47A11.42,11.42,0,0,1,263.22,55.85Z" transform="translate(-9.2 -11.74)"/><path class="cls-11" d="M263.22,55.85c2.87,1.66,2.89,4.35,0,6L210.82,92.33l-1.81-1,52.43-30.47c1.86-1.08,1.85-2.84,0-3.92a7.46,7.46,0,0,0-6.76,0L202.23,87.37l-1.82-1.05,52.44-30.47A11.42,11.42,0,0,1,263.22,55.85Z" transform="translate(-9.2 -11.74)"/><path class="cls-4" d="M262.22,60.26a6.77,6.77,0,0,1-1.06.72L209,91.28l-4.82-2.82L254.37,59.3a7.46,7.46,0,0,1,6.76,0A3.07,3.07,0,0,1,262.22,60.26Z" transform="translate(-9.2 -11.74)"/><polygon class="cls-12" points="199.82 79.54 195 76.71 195 161.02 199.57 163.39 199.82 79.54"/><path class="cls-13" d="M232.9,77.44l1.9,1.11s-.06,22.17-.06,22,1.93-4.15,3.76-5.44c1.65-1.17,3.23.42,3.23.42v-21l-2-1.06Z" transform="translate(-9.2 -11.74)"/><path class="cls-13" d="M304,87.85a5.85,5.85,0,0,0-5.34,0l-41.4,24.06L257,180.4l41.4-24.05a5.85,5.85,0,0,1,5.34,0,1.89,1.89,0,0,1,1.11,1.55l.2-68.49A1.88,1.88,0,0,0,304,87.85Z" transform="translate(-9.2 -11.74)"/><polygon class="cls-14" points="248.01 100.17 247.82 168.66 246.38 167.84 246.58 99.34 248.01 100.17"/><polygon class="cls-14" points="254.8 104.08 254.6 172.58 253.17 171.76 253.37 103.26 254.8 104.08"/><path class="cls-13" d="M305.4,91.77,264,115.83l-.19,68.49,41.4-24.06a2.9,2.9,0,0,0,1.68-2.35l.19-68.5A2.88,2.88,0,0,1,305.4,91.77Z" transform="translate(-9.2 -11.74)"/><path class="cls-10" d="M305.37,87c2.27,1.31,2.28,3.44,0,4.75L264,115.83l-1.43-.83L304,90.94c1.47-.85,1.46-2.24,0-3.09a5.85,5.85,0,0,0-5.34,0l-41.4,24.06-1.43-.83L297.18,87A9,9,0,0,1,305.37,87Z" transform="translate(-9.2 -11.74)"/><path class="cls-15" d="M305.37,87c2.27,1.31,2.28,3.44,0,4.75L264,115.83l-1.43-.83L304,90.94c1.47-.85,1.46-2.24,0-3.09a5.85,5.85,0,0,0-5.34,0l-41.4,24.06-1.43-.83L297.18,87A9,9,0,0,1,305.37,87Z" transform="translate(-9.2 -11.74)"/><path class="cls-4" d="M304.59,90.5a6.26,6.26,0,0,1-.84.57L262.58,115l-3.81-2.23,39.62-23a5.91,5.91,0,0,1,5.34,0A2.72,2.72,0,0,1,304.59,90.5Z" transform="translate(-9.2 -11.74)"/><polygon class="cls-12" points="253.38 103.26 249.57 101.02 249.57 167.6 253.17 169.47 253.38 103.26"/><path class="cls-16" d="M281.43,103.94l1.42.83s0,16.54,0,16.41,1.43-3.09,2.8-4.06a1.94,1.94,0,0,1,2.41.31V101.77l-1.49-.79Z" transform="translate(-9.2 -11.74)"/><path class="cls-16" d="M251.66,211.42c4.54,2.62,4.57,6.88.05,9.5l-87.44,50.81c-4.51,2.63-11.86,2.63-16.4,0L90.62,238.68c-4.54-2.62-4.57-6.88-.06-9.5L178,178.37c4.51-2.63,11.86-2.62,16.41,0Z" transform="translate(-9.2 -11.74)"/><path class="cls-17" d="M251.71,220.92l-87.44,50.81v4.08L251.7,225c2.24-1.3,3.36-3,3.37-4.72V216.2C255.08,217.91,254,219.62,251.71,220.92Z" transform="translate(-9.2 -11.74)"/><path class="cls-18" d="M90.62,238.68c-2.29-1.32-3.43-3.05-3.42-4.79l0,4.08c0,1.73,1.14,3.47,3.43,4.79l57.25,33.05v-4.08Z" transform="translate(-9.2 -11.74)"/><path class="cls-19" d="M164.27,271.73v4.08c-4.51,2.62-11.86,2.62-16.4,0v-4.08C152.41,274.36,159.76,274.36,164.27,271.73Z" transform="translate(-9.2 -11.74)"/><path class="cls-20" d="M127.74,250.27c1.53.88,1.54,2.33,0,3.22a6.16,6.16,0,0,1-5.55,0c-1.54-.89-1.55-2.34,0-3.22A6.14,6.14,0,0,1,127.74,250.27Z" transform="translate(-9.2 -11.74)"/><path class="cls-16" d="M251.65,211.41c4.55,2.62,4.58,6.88.06,9.5l-87.43,50.81c-4.52,2.63-11.86,2.63-16.42,0L90.63,238.67c-4.56-2.62-4.58-6.88-.06-9.5L178,178.36c4.52-2.63,11.86-2.63,16.41,0Zm-83.94,53.26,78.88-45.84c2.48-1.44,2.47-3.78,0-5.22l-55.94-32.29a9.94,9.94,0,0,0-9,0l-78.88,45.83c-2.48,1.45-2.46,3.78,0,5.22l55.94,32.3a9.94,9.94,0,0,0,9,0M122.2,253.49a6.16,6.16,0,0,0,5.55,0c1.53-.89,1.52-2.34,0-3.22a6.14,6.14,0,0,0-5.57,0c-1.52.88-1.51,2.33,0,3.22" transform="translate(-9.2 -11.74)"/><path class="cls-13" d="M147.48,262.73a1.1,1.1,0,0,1,0,2.09,4,4,0,0,1-3.62,0,1.11,1.11,0,0,1,0-2.09A3.94,3.94,0,0,1,147.48,262.73Z" transform="translate(-9.2 -11.74)"/><path class="cls-8" d="M153.57,266.18a1.1,1.1,0,0,1,0,2.09,4,4,0,0,1-3.61,0,1.1,1.1,0,0,1,0-2.09A4,4,0,0,1,153.57,266.18Z" transform="translate(-9.2 -11.74)"/><polygon class="cls-21" points="221.07 205.31 218.31 206.91 189.09 190.04 191.85 188.44 221.07 205.31"/><polygon class="cls-21" points="212.43 210.33 209.67 211.93 180.46 195.06 183.22 193.46 212.43 210.33"/><polygon class="cls-21" points="203.8 215.34 201.03 216.95 155.51 190.66 158.27 189.06 203.8 215.34"/><polygon class="cls-21" points="186.53 225.38 183.77 226.98 138.24 200.7 141 199.09 186.53 225.38"/><polygon class="cls-21" points="177.9 230.39 175.14 232 129.61 205.72 132.37 204.11 177.9 230.39"/><path class="cls-22" d="M246.56,213.61c2.5,1.44,2.51,3.78,0,5.22l-78.88,45.84a9.94,9.94,0,0,1-9,0l-55.94-32.3c-2.49-1.44-2.51-3.77,0-5.22l78.88-45.83a9.94,9.94,0,0,1,9,0Zm-56-19.5a12.72,12.72,0,0,0-11.57,0c-3.18,1.85-3.16,4.85,0,6.7a12.75,12.75,0,0,0,11.57,0c3.18-1.85,3.17-4.85,0-6.71M175.7,248.76l2.77-1.61-45.53-26.28-2.76,1.6,45.52,26.29m25.9-15,2.77-1.61-45.53-26.28-2.77,1.6,45.53,26.29m-8.63,5,2.77-1.61-45.53-26.29-2.77,1.61L193,238.73m17.27-10,2.76-1.61L167.47,200.8l-2.76,1.61,45.53,26.28m-25.9,15.05,2.76-1.6-45.53-26.29-2.76,1.61,45.53,26.28m-17.27,10,2.76-1.61L124.3,225.89l-2.76,1.6,45.53,26.29m51.81-30.11,2.76-1.6L192.42,205.2l-2.76,1.6,29.22,16.87m8.63-5,2.76-1.6-29.22-16.87-2.76,1.61,29.22,16.86" transform="translate(-9.2 -11.74)"/><path class="cls-21" d="M190.54,194.11c3.21,1.86,3.22,4.86,0,6.71a12.75,12.75,0,0,1-11.57,0c-3.2-1.85-3.22-4.85,0-6.7A12.72,12.72,0,0,1,190.54,194.11Z" transform="translate(-9.2 -11.74)"/><polygon class="cls-21" points="195.17 220.36 192.4 221.97 146.87 195.68 149.64 194.07 195.17 220.36"/><polygon class="cls-21" points="169.27 235.41 166.5 237.02 120.97 210.73 123.74 209.13 169.27 235.41"/><polygon class="cls-21" points="160.63 240.43 157.87 242.03 112.34 215.75 115.1 214.15 160.63 240.43"/><path class="cls-6" d="M259.17,262.3,259.06,300c0-3.2-2.11-6.41-6.34-8.86-8.41-4.85-22-4.85-30.37,0-4.15,2.42-6.23,5.57-6.24,8.74l.11-37.66c0-3.16,2.09-6.32,6.24-8.73,8.36-4.86,22-4.86,30.37,0C257.06,255.88,259.17,259.09,259.17,262.3Z" transform="translate(-9.2 -11.74)"/><path class="cls-23" d="M259.17,267.14l-.11,37.64c0-3.2-2.11-6.4-6.34-8.84-8.41-4.86-22-4.86-30.37,0-4.15,2.41-6.23,5.57-6.24,8.74l.11-37.66c0-3.16,2.09-6.32,6.24-8.73,8.35-4.86,21.95-4.86,30.36,0a15.86,15.86,0,0,1,3.74,2.89,9.67,9.67,0,0,1,2.19,3.51A7.47,7.47,0,0,1,259.17,267.14Z" transform="translate(-9.2 -11.74)"/><path class="cls-6" d="M264.49,262.31,264.38,300c0,4-2.61,7.89-7.79,10.9-10.43,6.06-27.39,6.06-37.89,0-5.28-3.05-7.92-7.05-7.91-11.05l.11-37.65c0,4,2.63,8,7.91,11,10.5,6.06,27.46,6.06,37.89,0C261.88,270.2,264.47,266.26,264.49,262.31Z" transform="translate(-9.2 -11.74)"/><path class="cls-7" d="M256.58,251.26c10.5,6.06,10.55,15.89.12,21.95s-27.39,6.06-37.89,0-10.56-15.89-.12-21.95S246.08,245.2,256.58,251.26Zm-34,19.77c8.41,4.86,22,4.86,30.37,0s8.31-12.73-.1-17.59-22-4.86-30.37,0-8.31,12.73.1,17.59" transform="translate(-9.2 -11.74)"/><path class="cls-16" d="M258.75,264.69C258,267,256,269.23,252.92,271c-8.35,4.86-21.95,4.86-30.36,0a16.25,16.25,0,0,1-1.68-1.1,17.38,17.38,0,0,1,6.11-5.55c8-4.63,19.79-5.7,29.57-3.2A9.67,9.67,0,0,1,258.75,264.69Z" transform="translate(-9.2 -11.74)"/><path class="cls-24" d="M259.42,277s11-3.86,13,5.32-12.25,17.11-12.25,17.11" transform="translate(-9.2 -11.74)"/><g class="cls-5"><polygon class="cls-17" points="136.87 164.85 136.85 171.53 113.88 184.88 113.9 178.2 136.87 164.85"/><polygon class="cls-18" points="113.9 178.2 113.88 184.88 108.45 181.74 108.47 175.07 113.9 178.2"/><polygon class="cls-16" points="136.87 164.85 113.9 178.2 108.47 175.07 131.44 161.72 136.87 164.85"/></g><g class="cls-5"><polygon class="cls-8" points="104.3 176.81 104.25 191.05 95.29 196.26 95.33 182.02 104.3 176.81"/><polygon class="cls-9" points="95.33 182.02 95.29 196.26 86.26 191.05 86.31 176.81 95.33 182.02"/><polygon class="cls-11" points="104.3 176.81 95.33 182.02 86.31 176.81 95.27 171.6 104.3 176.81"/></g><g class="cls-5"><polygon class="cls-6" points="254.34 191.5 253.88 191.23 242.19 184.48 242.16 194.52 253.86 201.28 254.32 201.54 266.01 208.29 266.04 198.25 254.34 191.5"/><polygon class="cls-25" points="274.28 193.46 274.26 203.5 266.01 208.29 266.04 198.25 274.28 193.46"/><polygon class="cls-7" points="274.28 193.46 266.04 198.25 254.34 191.5 253.88 191.23 242.19 184.48 250.44 179.69 262.13 186.44 262.59 186.71 274.28 193.46"/></g><path class="cls-16" d="M218.89,32.34a2.91,2.91,0,0,1,1.56,2.6c0,2.57-7.06,9.61-13.6,11.44.39,7.63,2.53,12.19,6,14.19,4.46,2.58,8.64-2.76,8.86-3a1.21,1.21,0,0,1,1.65-.38A3.82,3.82,0,0,1,225.09,60a3.71,3.71,0,0,1-.75,1.84c-.31.41-6.06,8.2-14.23,3.48a24.89,24.89,0,0,1-12.19-16.91c-3.73,2-9.44,4.43-12.5,2.66a2.11,2.11,0,0,1-1.15-2.1c0-1.69,2.33-5.58,4.07-5.06,3,1,6.37.27,8.85-.58-1-11.15-1-14.66-2.1-15.28-.42-.24-.75.05-1,.56a39.81,39.81,0,0,1-7.22,11.6,1.37,1.37,0,0,1-1.83.38,4.41,4.41,0,0,1-1.73-3,2.93,2.93,0,0,1,.92-1.75c1.5-1.61,4.82-5.21,7.23-12.74,1.17-3.5,6.29-3,9.59-1.11,4,2.34,5.27,7.41,5.65,19a13.88,13.88,0,0,0,4.08-8.47C210.78,30.22,217.81,31.72,218.89,32.34Z" transform="translate(-9.2 -11.74)"/><path class="cls-22" d="M307.51,68.65c1.37.79,3,2.22,3,3.39s-1.37,2.74-2.39,2.15-2-1.87-4.52-3.3a17.62,17.62,0,0,0-4.09-1.67c-2.84,10.21-6.8,19.41-17.28,13.36-5.19-3-9.61-9.67-9.6-14.85,0-5.69,8.56-7.13,17.94-6,.78-2.89,2.24-9.09,2.59-11a10.56,10.56,0,0,1-11.69.59c-3.92-2.26-8.84-9.32-8.83-14.61,0-7,4.67-19.75,6.72-24.06a1.51,1.51,0,0,1,2.3-.53c2.56,1.48,6.73,8,6.72,9.46,0,5.09-5.58,12.77-5.61,21.38a4.76,4.76,0,0,0,2,4.07c2.73,1.58,6.05-.42,7.51-2.63,3.26-4.88,5.51-14.46,7.23-20.14.25-1,1.29-1.12,2.39-.48,2.46,1.42,6.63,8,6.62,9.41,0,2.74-3.19,12-5.52,22.6-.35,1.46-2.07,8.22-2.5,9.93A36,36,0,0,1,307.51,68.65Zm-27.4,7.51c3.83,2.21,6.91-3.17,9.15-9.52-5.81.37-10.67,2.57-10.69,6.68a3.2,3.2,0,0,0,1.54,2.84" transform="translate(-9.2 -11.74)"/><path class="cls-13" d="M323.33,222.85a4.62,4.62,0,0,1,1.51,1.91c.25.56,5,11.28-4.77,17a29.93,29.93,0,0,1-25,2.53c-.08,5.12-.92,12.55-4.59,14.68a2.51,2.51,0,0,1-2.88-.05c-1.8-1-4.51-5.82-2.93-7.32,2.77-2.53,4-6.51,4.61-9.61-12.34-5.64-16-7.78-17.33-7-.49.28-.4.8,0,1.38a48.47,48.47,0,0,1,7.94,14.56,1.64,1.64,0,0,1-.69,2.13,5.3,5.3,0,0,1-4.17,0,3.5,3.5,0,0,1-1.3-2c-.82-2.52-2.64-8.17-9.14-15.26-3-3.33.56-8.39,4.52-10.7,4.86-2.82,10.92-1,23.38,5.59a17,17,0,0,0-6.51-9.39c-2.49-1.44,3.24-7.88,4.53-8.63a3.51,3.51,0,0,1,3.67-.07c2.7,1.56,5.94,13.19,4,21.13,8.28,4.21,14.33,4.73,18.5,2.31,5.35-3.11,2.19-10.71,2-11.11a1.48,1.48,0,0,1,.59-2A4.62,4.62,0,0,1,323.33,222.85Z" transform="translate(-9.2 -11.74)"/><path class="cls-16" d="M367.65,221.34c5.93,6,10.7,12.28,2.5,17-4.07,2.36-10.35,2.75-13.91.7-3.89-2.25-1.59-8.64,2.79-14.61-1.67-1.67-5.38-5.12-6.58-6.12a8.22,8.22,0,0,1-4.1,8.21c-3.07,1.79-9.83,2.36-13.45.27-4.83-2.79-11.78-11-13.92-14.06a1.18,1.18,0,0,1,.51-1.79c2-1.16,8.09-1.43,9.11-.85,3.48,2,6.6,8.84,12.5,12.25a3.77,3.77,0,0,0,3.55.27c2.13-1.24,2.05-4.3,1.1-6.16-2.09-4.15-7.82-9.46-11-12.87-.61-.58-.28-1.32.59-1.83,1.93-1.12,8-1.39,9-.8,1.88,1.08,7,6.9,13.38,12.66.87.82,4.84,4.66,5.85,5.62a27.68,27.68,0,0,1,4.8-3.63c1.07-.62,2.67-1.17,3.47-.7s1.36,2,.55,2.48a39.78,39.78,0,0,0-4,1.78A13.22,13.22,0,0,0,367.65,221.34Zm-5.26,15.88a2.5,2.5,0,0,0,2.54.09c3-1.75.5-6-3-10-2,4.11-2.36,8.29.46,9.91" transform="translate(-9.2 -11.74)"/><path class="cls-16" d="M61.45,171.64a11.6,11.6,0,0,1-10.53,0c-2.89-1.67-2.9-4.41,0-6.08a11.63,11.63,0,0,1,10.53,0C64.35,167.21,64.36,170,61.45,171.64Zm-7.58-4.38c-1.27.73-1.27,1.91,0,2.64a5,5,0,0,0,4.57,0c1.27-.74,1.27-1.91,0-2.64a5,5,0,0,0-4.56,0" transform="translate(-9.2 -11.74)"/><path class="cls-16" d="M76.31,174.5a6,6,0,0,1-2.21.59l-37.28,6.12a2.28,2.28,0,0,1-1.65-.22c-.71-.41-3-1.76-1.86-2.41a5,5,0,0,1,1-.32l37.91-6.32a2.91,2.91,0,0,1,1.65.18C75.55,173.07,76.76,174.24,76.31,174.5Z" transform="translate(-9.2 -11.74)"/><path class="cls-16" d="M58.25,181.82c2.9,1.67,2.91,4.4,0,6.07a11.55,11.55,0,0,1-10.52,0c-2.93-1.69-2.95-4.42,0-6.11A11.57,11.57,0,0,1,58.25,181.82ZM50.7,186.2a5,5,0,0,0,4.58,0c1.27-.74,1.26-1.87,0-2.61a5,5,0,0,0-4.57,0,1.43,1.43,0,0,0,0,2.69" transform="translate(-9.2 -11.74)"/><path class="cls-13" d="M116.11,212.88a.68.68,0,0,1,.07,1.18,7,7,0,0,1-2.23.54c-6.18.83-16.58,1.22-20.14-.84-3.17-1.83-7.45-6.25-7.68-6.48l-9.58,2.13A14.71,14.71,0,0,1,81,211.2c6,3.47,9.72,9.34,2.84,13.34-11.49,6.67-32.94,5-43.43-1.07-7.79-4.49-10.19-9.75-5.27-12.61,4.19-2.44,15.59.42,16.58,1,.6.34.73.72.27,1a3.47,3.47,0,0,1-1.58.31c-1.64.11-5.19.49-7.16,1.64-2.43,1.41-3,4.11,1.62,6.78,6.6,3.81,19.68,2.93,29.06-2.52,6.3-3.66,3.39-6.24.82-7.73a11.67,11.67,0,0,0-3.3-1.07c-.49.08-9.79,1.64-13.3-.38-1.84-1.07-1.71-2.51-.07-3.47,3.08-1.79,11.39.06,11.83.15l13.34-2.7c0-.17-.47-3.24,1.69-4.5a8.43,8.43,0,0,1,7.77,0c3.9,2.25-.53,5.33-.76,5.49a10.12,10.12,0,0,0,2.51,2.06c5.21,3,13.78,5.22,19.77,5.56A4.43,4.43,0,0,1,116.11,212.88Z" transform="translate(-9.2 -11.74)"/><path class="cls-8" d="M328.1,161.14c3.09,1.78,4.11,3.69,4.1,5.43a3.34,3.34,0,0,1-4.2,3.07,1.44,1.44,0,0,1-.78-1.26c0-.61,1.15-1,1.16-3a2.46,2.46,0,0,0-1.19-2c-4.61-2.66-12,3.81-12,13.82,0,5.06,2,8.53,4.26,9.84,3.41,2,7.16-2,7.18-8.58a4.74,4.74,0,0,0-2.21-4.11,5.54,5.54,0,0,0-5.43,0c-.17.1-.42.2-.58.1a1.37,1.37,0,0,1-.61-1c0-1.75,4.83-4.22,9.26-1.66a10,10,0,0,1,5.09,8.62c0,8.35-7.37,12.58-13.82,8.86-3.45-2-9-7.82-9-15.86C309.33,161.89,320.54,156.78,328.1,161.14Z" transform="translate(-9.2 -11.74)"/><path class="cls-26" d="M171.43,161.12s-4.9,18.26-13.78,8.38a20.34,20.34,0,0,1-4.18-11.38" transform="translate(-9.2 -11.74)"/><path class="cls-27" d="M153.91,157.09c-1.36-1.43-2.91-3.25-3.27-4.51" transform="translate(-9.2 -11.74)"/><path class="cls-13" d="M170,233.15c-1.25.26-5,1-5,1s-6.46,1.91-7.25,6.64,12.86-.7,13.51-2.45S171.29,232.9,170,233.15Z" transform="translate(-9.2 -11.74)"/><path class="cls-13" d="M179.72,236.89l-5,1s-6.45,1.91-7.24,6.64,12.85-.71,13.51-2.45S181,236.64,179.72,236.89Z" transform="translate(-9.2 -11.74)"/><path class="cls-28" d="M169.37,187.53a133.38,133.38,0,0,0-1.81,45.59" transform="translate(-9.2 -11.74)"/><path class="cls-28" d="M178.75,190.83a133.3,133.3,0,0,0-1.81,45.58" transform="translate(-9.2 -11.74)"/><path class="cls-13" d="M183.68,168.34l-.06,22A5.31,5.31,0,0,1,181,195h0a5.33,5.33,0,0,1-5.34,0l-7.89-4.56a5.3,5.3,0,0,1-2.66-4.62l0-17.56c0-.31.06-.62.08-.92a15.39,15.39,0,0,1,2.81-7.57,5.2,5.2,0,0,1,2-1.84l1.26-.66a5.25,5.25,0,0,1,1.72-.55c1.66-.21,3.19-.29,4.12.24a20.7,20.7,0,0,1,2.82,2.39c.13.13.25.26.37.4A14.38,14.38,0,0,1,183.68,168.34Z" transform="translate(-9.2 -11.74)"/><path class="cls-29" d="M176.52,161.76a2.54,2.54,0,0,0,.08-4.36l0,0a6.1,6.1,0,0,0-2.34-.76,2.48,2.48,0,0,0-1.41.26l-1.84.93a2.42,2.42,0,0,0-.51,3.8,5.9,5.9,0,0,0,1.3,1,2.92,2.92,0,0,0,3.06.1l.21-.11Z" transform="translate(-9.2 -11.74)"/><path class="cls-30" d="M175.46,153.57a3.22,3.22,0,0,0-2.81,0,.9.9,0,0,0,0,1.68,3.09,3.09,0,0,0,2.81,0A.86.86,0,0,0,175.46,153.57Z" transform="translate(-9.2 -11.74)"/><path class="cls-31" d="M175.46,155.2a3.09,3.09,0,0,1-2.81,0,1,1,0,0,1-.58-.87h0v3.8h0a1,1,0,0,0,.58.82,3.09,3.09,0,0,0,2.81,0,1,1,0,0,0,.58-.82h0v-3.74A1,1,0,0,1,175.46,155.2Z" transform="translate(-9.2 -11.74)"/><path class="cls-29" d="M176,154.33s0,0,0,.06v-.06Z" transform="translate(-9.2 -11.74)"/><path class="cls-32" d="M170.27,140.88s-4.24.53-4.77,4.28-1.54,4.55-2.61,7.24c0,0-1.26,2.17.23,3.39s1.18,2.24,4,1.29,2.19,2.68,6.06-.74,4.58-8.24,3.16-11S170.27,140.88,170.27,140.88Z" transform="translate(-9.2 -11.74)"/><path class="cls-29" d="M181,145.41v4.8a6.94,6.94,0,0,1-13.87,0v-4.8a6.65,6.65,0,0,1,.19-1.62c0-.14.07-.27.11-.4a6.94,6.94,0,0,1,13.57,2Z" transform="translate(-9.2 -11.74)"/><path class="cls-33" d="M185.85,153.57c.7-3.56-1.78-6.16-3.09-9.16a5.61,5.61,0,0,0-2.36-2.57,6,6,0,0,0-3.14-2.71,9.52,9.52,0,0,0-7.42.36l-1.74.84a2.3,2.3,0,0,0,.33,4.29l.08,0a6.69,6.69,0,0,0,1.25.16,2.32,2.32,0,0,0,.5,1.18,10.07,10.07,0,0,0,2.94,2.64c.89,1.29,2,2.55,3,2.28.05.5,0,.92.8,1.08a1,1,0,0,0,.63-.07c.65,1.26,1.06.67.83,4.06-.3,4.37,3.57,5.67,6.55,4.26S185.15,157.13,185.85,153.57Z" transform="translate(-9.2 -11.74)"/><g class="cls-5"><path class="cls-16" d="M187.32,107a7.79,7.79,0,0,1-5.45-4.51A2.48,2.48,0,0,1,182,100l-53.59,65.2a2.51,2.51,0,0,0-.18,2.5,7.81,7.81,0,0,0,5.46,4.51,2.49,2.49,0,0,0,2.45-.65l53.59-65.2A2.49,2.49,0,0,1,187.32,107Z" transform="translate(-9.2 -11.74)"/><path class="cls-4" d="M182.89,99.44a2.77,2.77,0,0,0-.74.33H182c0,.55-.72,1.52-.27,2.73a7.84,7.84,0,0,0,5.52,4.46c1.29.22,2.28,0,2.69-1H190v.09a6.61,6.61,0,0,1,.19-.68l3.74-11.92Z" transform="translate(-9.2 -11.74)"/><path class="cls-34" d="M190.5,95.33a.5.5,0,0,0-.19.11h0a.73.73,0,0,0-.12.85,2.44,2.44,0,0,0,1.69,1.4.74.74,0,0,0,.82-.29h0a.65.65,0,0,0,.06-.21l1.17-3.7Z" transform="translate(-9.2 -11.74)"/></g><path class="cls-27" d="M181.72,121.83c-.71-1.84-1.69-4-2.66-4.89" transform="translate(-9.2 -11.74)"/><path class="cls-26" d="M181.59,165.26s11.24-18,1.62-41.86" transform="translate(-9.2 -11.74)"/></svg>